<svg width="517" height="370" viewBox="0 0 517 370" fill="none" xmlns="http://www.w3.org/2000/svg">
    <g filter="url(#filter0_d_1_7225)">
    <rect x="24" y="24" width="447" height="170" rx="24" fill="white"/>
    </g>
    <path fill-rule="evenodd" clip-rule="evenodd" d="M64.6142 45.1591C64.2303 45.2327 63.633 45.401 63.281 45.5271C62.9291 45.6533 62.1825 45.9793 61.6278 46.2528C61.0732 46.5262 60.1133 47.0835 59.4947 47.4936C58.8761 47.9038 57.9162 48.6294 57.3616 49.1236C56.807 49.6074 56.039 50.354 55.6551 50.7852C55.2711 51.2058 54.5885 52.0576 54.1192 52.6675C53.6606 53.2775 52.9567 54.3186 52.562 54.9811C52.1567 55.6436 51.5595 56.7583 51.2182 57.4523C50.8875 58.1464 50.3969 59.2611 50.1409 59.9236C49.8743 60.5861 49.5437 61.6062 49.3943 62.1845C49.1917 63.0048 49.117 63.6042 49.0744 64.9187C49.0317 66.0229 49.0637 66.8747 49.149 67.39C49.2237 67.8211 49.3943 68.4837 49.5223 68.8622C49.6503 69.2408 49.8956 69.8087 50.0556 70.1242C50.2156 70.4396 50.5569 70.9654 50.8022 71.2809C51.0475 71.5964 51.4848 72.0486 51.7728 72.2799C52.0608 72.5113 52.658 72.9004 53.0953 73.1423C53.5326 73.3946 54.6205 73.8784 55.4951 74.2149C56.3803 74.5619 57.6709 75.0141 58.3748 75.2244C59.0788 75.4347 60.2306 75.6976 60.9346 75.8238C61.9905 76.0026 62.5131 76.0236 63.921 75.9816C65.1688 75.9395 65.8621 75.8764 66.4807 75.7082C66.95 75.5925 67.7393 75.2875 68.2299 75.0457C68.8058 74.7617 69.3498 74.3831 69.7337 74.0151C70.0644 73.6891 70.4697 73.1633 70.6403 72.8057C70.907 72.2694 70.9603 72.0276 70.9923 71.1758C71.0243 70.3765 70.9816 69.9769 70.7683 69.1777C70.6297 68.6309 70.3097 67.716 70.0644 67.1586C69.8297 66.5908 69.3818 65.6864 69.0725 65.1606C68.7632 64.6243 68.1552 63.7094 67.7073 63.131C67.27 62.5526 66.5234 61.7008 66.0541 61.2276C65.5848 60.7649 64.8062 60.0813 64.3263 59.7028C63.857 59.3347 63.3877 59.0297 63.2917 59.0297C63.1957 59.0297 63.121 59.0508 63.121 59.0823C63.121 59.1139 63.4197 59.4188 63.7716 59.7659C64.1343 60.1129 64.6889 60.7018 64.9982 61.0804C65.3075 61.4589 65.5741 61.806 65.5741 61.8691C65.5741 61.9322 65.0835 61.4589 64.4756 60.8175C63.8676 60.176 63.1104 59.4609 62.7904 59.219C62.4704 58.9772 61.9265 58.6091 61.5745 58.3988C61.2226 58.199 60.5506 57.9045 60.0813 57.7468C59.4094 57.5365 59.0041 57.4734 58.1615 57.4734C57.4576 57.4628 56.8923 57.5259 56.5083 57.6416C56.1884 57.7363 55.6977 57.9571 55.4204 58.1359L54.9085 58.4514C54.7378 57.9256 54.6952 57.5996 54.6952 57.3998C54.6952 57.1999 54.7912 56.7267 54.8978 56.3481C55.0151 55.9696 55.3458 55.3071 55.6444 54.8759C55.9324 54.4447 56.4977 53.7402 56.8923 53.309C57.2976 52.8884 58.0122 52.2469 58.4815 51.8999C58.9508 51.5528 59.7507 51.0691 60.2733 50.8167C60.7853 50.5643 61.6172 50.2278 62.1398 50.0701C62.9824 49.8177 63.2277 49.7861 64.8275 49.7861C66.1927 49.7756 66.7794 49.8177 67.4406 49.9754C67.9099 50.0806 68.6778 50.3014 69.1471 50.4697C69.6164 50.6379 70.235 50.9534 70.523 51.1743C70.8216 51.3846 71.2056 51.7632 71.3763 52.005C71.5576 52.2469 71.8135 52.6255 71.9522 52.8463C72.0802 53.0671 72.3362 53.33 72.5068 53.4352C72.6881 53.5299 72.9548 53.614 73.1041 53.614C73.2641 53.614 73.4987 53.4878 73.6907 53.2985C73.936 53.0461 74 52.8884 74 52.5413C74 52.2364 73.8933 51.9104 73.6907 51.5634C73.5307 51.2794 73.0828 50.7641 72.7095 50.4276C72.3362 50.0911 71.6642 49.6389 71.2269 49.4181C70.7896 49.1867 70.1177 48.9133 69.7337 48.7976C69.3498 48.682 68.5819 48.5347 68.0272 48.4611C67.3766 48.3665 66.5874 48.3454 65.8408 48.3875C65.1902 48.4296 64.2623 48.5558 63.761 48.6609C63.2597 48.7766 62.4918 48.9974 62.0545 49.1447C61.6172 49.3024 60.9452 49.5863 60.5613 49.7756C60.1773 49.9649 59.4307 50.4066 58.9081 50.7536C58.3855 51.1006 57.5429 51.7526 57.0523 52.2153C56.5617 52.6675 55.8151 53.4878 55.3991 54.0346C54.9725 54.5815 54.4179 55.4122 54.1619 55.8749C53.7566 56.5795 53.6713 56.6741 53.6499 56.4533C53.6286 56.3061 53.7673 55.7382 53.9486 55.1914C54.1299 54.6445 54.4712 53.8348 54.7058 53.4037C54.9405 52.9725 55.3884 52.289 55.7084 51.8788C56.0177 51.4792 56.6257 50.8167 57.0523 50.4171C57.4896 50.007 58.2468 49.4181 58.7481 49.1026C59.2494 48.7871 60.0493 48.3454 60.5399 48.1246C61.0199 47.9038 61.8838 47.5883 62.4491 47.42C63.025 47.2623 63.825 47.0625 64.2409 46.9994C64.6569 46.9258 65.5421 46.8311 66.2141 46.7786C67.1633 46.7049 67.4833 46.6418 67.6326 46.4946C67.7393 46.3895 67.8246 46.1686 67.8246 45.9899C67.8246 45.8006 67.7286 45.5902 67.5793 45.4535C67.4406 45.3273 67.2273 45.1696 67.0887 45.1065C66.9607 45.0434 66.5021 44.9908 66.0754 45.0013C65.6595 45.0013 64.9982 45.075 64.6142 45.1591ZM56.9136 60.6071C56.6257 60.6913 56.2417 60.9226 56.0497 61.1119C55.8257 61.3222 55.6551 61.6377 55.5698 61.9742C55.4844 62.2792 55.4631 62.6788 55.5058 62.9207C55.5378 63.152 55.6764 63.5516 55.7937 63.8145C55.9217 64.0774 56.2844 64.5506 56.615 64.8766C56.9883 65.2552 57.5003 65.6128 58.0549 65.8862C58.5242 66.1175 59.2708 66.4435 59.708 66.5908C60.1453 66.7485 61.2972 67.1166 62.2678 67.411C63.473 67.7791 64.2303 67.9473 64.6462 67.9578C65.2009 67.9684 65.2968 67.9368 65.5315 67.6844C65.6808 67.5057 65.7875 67.2533 65.7875 67.0745C65.7875 66.9062 65.7128 66.5802 65.6168 66.3699C65.5315 66.1491 65.2435 65.6864 64.9982 65.3394C64.7422 64.9923 63.921 64.0879 63.1637 63.3203C62.3211 62.4685 61.4999 61.7639 61.0412 61.4694C60.6253 61.2171 60.0067 60.9016 59.6547 60.7649C59.2814 60.6282 58.6841 60.5125 58.2149 60.4915C57.6922 60.4599 57.2443 60.502 56.903 60.6071H56.9136Z" fill="#081735"/>
    <path d="M48.6158 59.5766C48.2425 60.0288 47.7625 60.7018 47.5385 61.0804C47.3145 61.4589 47.0052 62.0899 46.8453 62.5C46.6853 62.9102 46.472 63.5621 46.3653 63.9723C46.2586 64.3824 46.12 65.2026 46.056 65.8126C45.9813 66.5697 45.9813 67.2428 46.056 67.9684C46.12 68.5467 46.2586 69.3775 46.376 69.8087C46.4826 70.2398 46.7066 70.9023 46.8666 71.2809C47.0372 71.6595 47.2719 72.1432 47.4105 72.3641C47.5492 72.5744 47.8372 72.953 48.0505 73.1843C48.2745 73.4262 48.7437 73.8258 49.0957 74.0677C49.4477 74.32 50.0236 74.6566 50.3756 74.8353C50.7276 75.0036 51.4848 75.298 52.0501 75.4768C52.626 75.6556 53.362 75.8344 53.6926 75.8869C54.1192 75.9395 54.3112 75.929 54.4072 75.8238C54.4925 75.7327 54.4996 75.6591 54.4285 75.603C54.3645 75.5504 53.8846 75.2875 53.362 75.0141C52.8287 74.7407 52.0501 74.278 51.6128 73.973C51.1755 73.6786 50.5462 73.1738 50.2263 72.8583C49.8956 72.5428 49.4263 71.996 49.1917 71.649C48.9464 71.3019 48.6584 70.8287 48.5411 70.5974C48.4131 70.366 48.2211 69.8718 48.1038 69.4932C47.9865 69.1146 47.8265 68.389 47.7625 67.8632C47.6665 67.1376 47.6558 66.6539 47.7518 65.76C47.8265 65.129 47.9758 64.151 48.1038 63.6042C48.2211 63.0574 48.4878 62.132 48.6904 61.5536C48.8931 60.9752 49.213 60.218 49.3837 59.871C49.5543 59.524 49.6823 59.1454 49.661 59.0297C49.6397 58.9141 49.5543 58.8089 49.4477 58.7879C49.341 58.7668 49.0424 59.0403 48.6158 59.5766Z" fill="#081735"/>
    <path d="M85.3942 67H82.4283L86.9474 53.9091H90.5142L95.027 67H92.0611L88.782 56.9006H88.6797L85.3942 67ZM85.2088 61.8544H92.2145V64.0149H85.2088V61.8544ZM99.3704 53.9091V67H96.6026V53.9091H99.3704ZM110.985 57.1818V59.2273H105.072V57.1818H110.985ZM106.414 54.8295H109.137V63.983C109.137 64.2344 109.176 64.4304 109.252 64.571C109.329 64.7074 109.436 64.8033 109.572 64.8587C109.713 64.9141 109.875 64.9418 110.058 64.9418C110.186 64.9418 110.314 64.9311 110.441 64.9098C110.569 64.8842 110.667 64.8651 110.735 64.8523L111.164 66.8786C111.027 66.9212 110.836 66.9702 110.588 67.0256C110.341 67.0852 110.041 67.1214 109.687 67.1342C109.031 67.1598 108.456 67.0724 107.961 66.8722C107.471 66.6719 107.09 66.3608 106.817 65.9389C106.544 65.517 106.41 64.9844 106.414 64.3409V54.8295ZM117.089 67.1918C116.096 67.1918 115.238 66.9808 114.513 66.5589C113.793 66.1328 113.237 65.5405 112.845 64.782C112.453 64.0192 112.257 63.1349 112.257 62.1293C112.257 61.1151 112.453 60.2287 112.845 59.4702C113.237 58.7074 113.793 58.1151 114.513 57.6932C115.238 57.267 116.096 57.054 117.089 57.054C118.082 57.054 118.939 57.267 119.659 57.6932C120.383 58.1151 120.941 58.7074 121.333 59.4702C121.725 60.2287 121.922 61.1151 121.922 62.1293C121.922 63.1349 121.725 64.0192 121.333 64.782C120.941 65.5405 120.383 66.1328 119.659 66.5589C118.939 66.9808 118.082 67.1918 117.089 67.1918ZM117.102 65.0824C117.554 65.0824 117.931 64.9545 118.233 64.6989C118.536 64.4389 118.764 64.0852 118.917 63.6378C119.075 63.1903 119.154 62.6811 119.154 62.1101C119.154 61.5391 119.075 61.0298 118.917 60.5824C118.764 60.1349 118.536 59.7812 118.233 59.5213C117.931 59.2614 117.554 59.1314 117.102 59.1314C116.646 59.1314 116.262 59.2614 115.951 59.5213C115.645 59.7812 115.412 60.1349 115.255 60.5824C115.101 61.0298 115.025 61.5391 115.025 62.1101C115.025 62.6811 115.101 63.1903 115.255 63.6378C115.412 64.0852 115.645 64.4389 115.951 64.6989C116.262 64.9545 116.646 65.0824 117.102 65.0824ZM132.55 67H127.909V53.9091H132.588C133.905 53.9091 135.039 54.1712 135.989 54.6953C136.939 55.2152 137.67 55.9631 138.181 56.9389C138.697 57.9148 138.955 59.0824 138.955 60.4418C138.955 61.8054 138.697 62.9773 138.181 63.9574C137.67 64.9375 136.935 65.6896 135.976 66.2138C135.021 66.7379 133.879 67 132.55 67ZM130.677 64.6286H132.435C133.253 64.6286 133.941 64.4837 134.499 64.1939C135.062 63.8999 135.484 63.446 135.765 62.8324C136.051 62.2145 136.193 61.4176 136.193 60.4418C136.193 59.4744 136.051 58.6839 135.765 58.0703C135.484 57.4567 135.064 57.005 134.506 56.7152C133.948 56.4254 133.259 56.2805 132.441 56.2805H130.677V64.6286ZM145.428 67.1918C144.418 67.1918 143.549 66.9872 142.82 66.5781C142.096 66.1648 141.538 65.581 141.146 64.8267C140.754 64.0682 140.558 63.1712 140.558 62.1357C140.558 61.1257 140.754 60.2393 141.146 59.4766C141.538 58.7138 142.089 58.1193 142.801 57.6932C143.517 57.267 144.357 57.054 145.32 57.054C145.967 57.054 146.57 57.1584 147.129 57.3672C147.691 57.5717 148.181 57.8807 148.599 58.294C149.021 58.7074 149.349 59.2273 149.583 59.8537C149.817 60.4759 149.935 61.2045 149.935 62.0398V62.7876H141.644V61.1001H147.371C147.371 60.7081 147.286 60.3608 147.116 60.0582C146.945 59.7557 146.709 59.5192 146.406 59.3487C146.108 59.174 145.761 59.0866 145.364 59.0866C144.951 59.0866 144.585 59.1825 144.265 59.3743C143.95 59.5618 143.702 59.8153 143.523 60.1349C143.344 60.4503 143.253 60.8018 143.249 61.1896V62.794C143.249 63.2798 143.338 63.6996 143.517 64.0533C143.7 64.407 143.958 64.6797 144.29 64.8714C144.623 65.0632 145.017 65.1591 145.473 65.1591C145.776 65.1591 146.053 65.1165 146.304 65.0312C146.555 64.946 146.771 64.8182 146.95 64.6477C147.129 64.4773 147.265 64.2685 147.359 64.0213L149.877 64.1875C149.749 64.7926 149.487 65.321 149.091 65.7727C148.699 66.2202 148.192 66.5696 147.57 66.821C146.952 67.0682 146.238 67.1918 145.428 67.1918ZM156.934 57.1818V59.2273H151.021V57.1818H156.934ZM152.364 54.8295H155.087V63.983C155.087 64.2344 155.125 64.4304 155.202 64.571C155.278 64.7074 155.385 64.8033 155.521 64.8587C155.662 64.9141 155.824 64.9418 156.007 64.9418C156.135 64.9418 156.263 64.9311 156.391 64.9098C156.518 64.8842 156.616 64.8651 156.685 64.8523L157.113 66.8786C156.977 66.9212 156.785 66.9702 156.538 67.0256C156.29 67.0852 155.99 67.1214 155.636 67.1342C154.98 67.1598 154.405 67.0724 153.911 66.8722C153.42 66.6719 153.039 66.3608 152.766 65.9389C152.494 65.517 152.359 64.9844 152.364 64.3409V54.8295ZM163.077 67.1918C162.067 67.1918 161.197 66.9872 160.469 66.5781C159.744 66.1648 159.186 65.581 158.794 64.8267C158.402 64.0682 158.206 63.1712 158.206 62.1357C158.206 61.1257 158.402 60.2393 158.794 59.4766C159.186 58.7138 159.738 58.1193 160.45 57.6932C161.165 57.267 162.005 57.054 162.968 57.054C163.616 57.054 164.219 57.1584 164.777 57.3672C165.339 57.5717 165.83 57.8807 166.247 58.294C166.669 58.7074 166.997 59.2273 167.232 59.8537C167.466 60.4759 167.583 61.2045 167.583 62.0398V62.7876H159.293V61.1001H165.02C165.02 60.7081 164.935 60.3608 164.764 60.0582C164.594 59.7557 164.357 59.5192 164.055 59.3487C163.756 59.174 163.409 59.0866 163.013 59.0866C162.599 59.0866 162.233 59.1825 161.913 59.3743C161.598 59.5618 161.351 59.8153 161.172 60.1349C160.993 60.4503 160.901 60.8018 160.897 61.1896V62.794C160.897 63.2798 160.987 63.6996 161.165 64.0533C161.349 64.407 161.607 64.6797 161.939 64.8714C162.271 65.0632 162.665 65.1591 163.121 65.1591C163.424 65.1591 163.701 65.1165 163.952 65.0312C164.204 64.946 164.419 64.8182 164.598 64.6477C164.777 64.4773 164.913 64.2685 165.007 64.0213L167.526 64.1875C167.398 64.7926 167.136 65.321 166.739 65.7727C166.347 66.2202 165.84 66.5696 165.218 66.821C164.6 67.0682 163.886 67.1918 163.077 67.1918ZM173.796 67.1918C172.79 67.1918 171.925 66.9787 171.201 66.5526C170.481 66.1222 169.927 65.5256 169.539 64.7628C169.156 64 168.964 63.1222 168.964 62.1293C168.964 61.1236 169.158 60.2415 169.545 59.483C169.938 58.7202 170.494 58.1257 171.214 57.6996C171.934 57.2692 172.79 57.054 173.783 57.054C174.64 57.054 175.39 57.2095 176.033 57.5206C176.677 57.8317 177.186 58.2685 177.561 58.831C177.936 59.3935 178.143 60.054 178.181 60.8125H175.612C175.539 60.3224 175.347 59.9283 175.036 59.63C174.729 59.3274 174.327 59.1761 173.828 59.1761C173.406 59.1761 173.038 59.2912 172.722 59.5213C172.411 59.7472 172.168 60.0774 171.994 60.5121C171.819 60.9467 171.732 61.473 171.732 62.0909C171.732 62.7173 171.817 63.25 171.987 63.6889C172.162 64.1278 172.407 64.4624 172.722 64.6925C173.038 64.9226 173.406 65.0376 173.828 65.0376C174.139 65.0376 174.418 64.9737 174.665 64.8459C174.917 64.718 175.124 64.5327 175.286 64.2898C175.452 64.0426 175.56 63.7464 175.612 63.4013H178.181C178.138 64.1513 177.934 64.8118 177.567 65.3828C177.205 65.9496 176.705 66.3928 176.065 66.7124C175.426 67.032 174.67 67.1918 173.796 67.1918ZM185.147 57.1818V59.2273H179.234V57.1818H185.147ZM180.577 54.8295H183.3V63.983C183.3 64.2344 183.338 64.4304 183.415 64.571C183.491 64.7074 183.598 64.8033 183.734 64.8587C183.875 64.9141 184.037 64.9418 184.22 64.9418C184.348 64.9418 184.476 64.9311 184.604 64.9098C184.731 64.8842 184.829 64.8651 184.898 64.8523L185.326 66.8786C185.189 66.9212 184.998 66.9702 184.751 67.0256C184.503 67.0852 184.203 67.1214 183.849 67.1342C183.193 67.1598 182.618 67.0724 182.123 66.8722C181.633 66.6719 181.252 66.3608 180.979 65.9389C180.706 65.517 180.572 64.9844 180.577 64.3409V54.8295ZM195.101 67.1918C194.197 67.1918 193.418 67.0298 192.761 66.706C192.105 66.3821 191.6 65.9432 191.246 65.3892C190.897 64.831 190.722 64.2088 190.722 63.5227C190.722 63.0114 190.825 62.5575 191.029 62.1612C191.234 61.7649 191.519 61.4006 191.886 61.0682C192.252 60.7315 192.678 60.397 193.164 60.0646L195.702 58.3963C196.03 58.1875 196.271 57.968 196.424 57.7379C196.577 57.5036 196.654 57.25 196.654 56.9773C196.654 56.7173 196.55 56.4766 196.341 56.255C196.132 56.0334 195.836 55.9247 195.452 55.929C195.197 55.929 194.975 55.9865 194.788 56.1016C194.6 56.2124 194.453 56.3594 194.347 56.5426C194.244 56.7216 194.193 56.9219 194.193 57.1435C194.193 57.4162 194.27 57.6932 194.423 57.9744C194.577 58.2557 194.781 58.554 195.037 58.8693C195.293 59.1804 195.572 59.517 195.874 59.8793L202.081 67H199.243L194.065 61.2344C193.724 60.8466 193.384 60.4418 193.043 60.0199C192.706 59.5937 192.425 59.142 192.199 58.6648C191.973 58.1832 191.86 57.6612 191.86 57.0987C191.86 56.4638 192.007 55.8928 192.301 55.3857C192.599 54.8786 193.017 54.478 193.554 54.1839C194.091 53.8857 194.717 53.7365 195.433 53.7365C196.132 53.7365 196.735 53.8793 197.242 54.1648C197.754 54.446 198.146 54.821 198.418 55.2898C198.695 55.7543 198.834 56.2656 198.834 56.8239C198.834 57.4418 198.68 58.0021 198.374 58.505C198.071 59.0036 197.645 59.451 197.095 59.8473L194.423 61.7713C194.061 62.0355 193.793 62.3061 193.618 62.5831C193.447 62.8558 193.362 63.1179 193.362 63.3693C193.362 63.6804 193.439 63.9595 193.592 64.2067C193.746 64.4538 193.963 64.6499 194.244 64.7947C194.526 64.9354 194.856 65.0057 195.235 65.0057C195.695 65.0057 196.149 64.9013 196.597 64.6925C197.048 64.4794 197.457 64.179 197.824 63.7912C198.195 63.3991 198.491 62.9347 198.712 62.3977C198.934 61.8608 199.045 61.2663 199.045 60.6143H201.301C201.301 61.4155 201.214 62.1378 201.039 62.7812C200.864 63.4205 200.621 63.9787 200.31 64.456C199.999 64.929 199.643 65.3168 199.243 65.6193C199.115 65.7003 198.991 65.777 198.872 65.8494C198.753 65.9219 198.629 65.9986 198.501 66.0795C198.016 66.4716 197.472 66.755 196.871 66.9297C196.275 67.1044 195.685 67.1918 195.101 67.1918ZM209.689 67H206.723L211.242 53.9091H214.809L219.322 67H216.356L213.077 56.9006H212.975L209.689 67ZM209.504 61.8544H216.509V64.0149H209.504V61.8544ZM227.143 62.8196V57.1818H229.866V67H227.251V65.2166H227.149C226.927 65.7919 226.559 66.2543 226.043 66.6037C225.532 66.9531 224.907 67.1278 224.17 67.1278C223.514 67.1278 222.937 66.9787 222.438 66.6804C221.939 66.3821 221.55 65.9581 221.268 65.4084C220.991 64.8587 220.851 64.2003 220.846 63.4332V57.1818H223.569V62.9474C223.574 63.527 223.729 63.9851 224.036 64.3217C224.343 64.6584 224.754 64.8267 225.27 64.8267C225.598 64.8267 225.905 64.7521 226.19 64.603C226.476 64.4496 226.706 64.2237 226.881 63.9254C227.059 63.6271 227.147 63.2585 227.143 62.8196ZM237.266 57.1818V59.2273H231.353V57.1818H237.266ZM232.696 54.8295H235.419V63.983C235.419 64.2344 235.457 64.4304 235.534 64.571C235.61 64.7074 235.717 64.8033 235.853 64.8587C235.994 64.9141 236.156 64.9418 236.339 64.9418C236.467 64.9418 236.595 64.9311 236.723 64.9098C236.85 64.8842 236.949 64.8651 237.017 64.8523L237.445 66.8786C237.309 66.9212 237.117 66.9702 236.87 67.0256C236.623 67.0852 236.322 67.1214 235.968 67.1342C235.312 67.1598 234.737 67.0724 234.243 66.8722C233.752 66.6719 233.371 66.3608 233.098 65.9389C232.826 65.517 232.691 64.9844 232.696 64.3409V54.8295ZM243.37 67.1918C242.377 67.1918 241.519 66.9808 240.794 66.5589C240.074 66.1328 239.518 65.5405 239.126 64.782C238.734 64.0192 238.538 63.1349 238.538 62.1293C238.538 61.1151 238.734 60.2287 239.126 59.4702C239.518 58.7074 240.074 58.1151 240.794 57.6932C241.519 57.267 242.377 57.054 243.37 57.054C244.363 57.054 245.22 57.267 245.94 57.6932C246.664 58.1151 247.223 58.7074 247.615 59.4702C248.007 60.2287 248.203 61.1151 248.203 62.1293C248.203 63.1349 248.007 64.0192 247.615 64.782C247.223 65.5405 246.664 66.1328 245.94 66.5589C245.22 66.9808 244.363 67.1918 243.37 67.1918ZM243.383 65.0824C243.835 65.0824 244.212 64.9545 244.515 64.6989C244.817 64.4389 245.045 64.0852 245.199 63.6378C245.356 63.1903 245.435 62.6811 245.435 62.1101C245.435 61.5391 245.356 61.0298 245.199 60.5824C245.045 60.1349 244.817 59.7812 244.515 59.5213C244.212 59.2614 243.835 59.1314 243.383 59.1314C242.927 59.1314 242.544 59.2614 242.233 59.5213C241.926 59.7812 241.694 60.1349 241.536 60.5824C241.382 61.0298 241.306 61.5391 241.306 62.1101C241.306 62.6811 241.382 63.1903 241.536 63.6378C241.694 64.0852 241.926 64.4389 242.233 64.6989C242.544 64.9545 242.927 65.0824 243.383 65.0824ZM255.253 57.1818V59.2273H249.194V57.1818H255.253ZM250.581 67V56.4723C250.581 55.7607 250.719 55.1705 250.996 54.7017C251.277 54.233 251.661 53.8814 252.147 53.647C252.632 53.4126 253.184 53.2955 253.802 53.2955C254.22 53.2955 254.601 53.3274 254.946 53.3913C255.296 53.4553 255.556 53.5128 255.726 53.5639L255.24 55.6094C255.134 55.5753 255.002 55.5433 254.844 55.5135C254.691 55.4837 254.533 55.4688 254.371 55.4688C253.971 55.4688 253.691 55.5625 253.534 55.75C253.376 55.9332 253.297 56.1911 253.297 56.5234V67H250.581ZM256.917 67V57.1818H259.64V67H256.917ZM258.285 55.9162C257.88 55.9162 257.532 55.782 257.243 55.5135C256.957 55.2408 256.814 54.9148 256.814 54.5355C256.814 54.1605 256.957 53.8388 257.243 53.5703C257.532 53.2976 257.88 53.1612 258.285 53.1612C258.689 53.1612 259.035 53.2976 259.32 53.5703C259.61 53.8388 259.755 54.1605 259.755 54.5355C259.755 54.9148 259.61 55.2408 259.32 55.5135C259.035 55.782 258.689 55.9162 258.285 55.9162ZM264.097 57.1818L265.899 60.6143L267.746 57.1818H270.54L267.695 62.0909L270.616 67H267.836L265.899 63.6058L263.994 67H261.182L264.097 62.0909L261.284 57.1818H264.097ZM276.374 67V53.9091H281.616C282.579 53.9091 283.382 54.0518 284.025 54.3374C284.669 54.6229 285.153 55.0192 285.476 55.5263C285.8 56.0291 285.962 56.6087 285.962 57.2649C285.962 57.7763 285.86 58.2259 285.655 58.6136C285.451 58.9972 285.17 59.3125 284.812 59.5597C284.458 59.8026 284.053 59.9751 283.597 60.0774V60.2053C284.096 60.2266 284.562 60.3672 284.997 60.6271C285.436 60.8871 285.792 61.2514 286.064 61.7202C286.337 62.1847 286.474 62.7386 286.474 63.3821C286.474 64.0767 286.301 64.6967 285.956 65.2422C285.615 65.7834 285.11 66.2116 284.441 66.527C283.772 66.8423 282.947 67 281.967 67H276.374ZM279.142 64.7372H281.398C282.17 64.7372 282.732 64.5902 283.086 64.2962C283.439 63.9979 283.616 63.6016 283.616 63.1072C283.616 62.745 283.529 62.4254 283.354 62.1484C283.18 61.8714 282.93 61.6541 282.606 61.4964C282.287 61.3388 281.905 61.2599 281.462 61.2599H279.142V64.7372ZM279.142 59.3871H281.194C281.573 59.3871 281.91 59.321 282.204 59.1889C282.502 59.0526 282.736 58.8608 282.907 58.6136C283.081 58.3665 283.169 58.0703 283.169 57.7251C283.169 57.2521 283.001 56.8707 282.664 56.581C282.331 56.2912 281.858 56.1463 281.245 56.1463H279.142V59.3871ZM291.023 67.1854C290.397 67.1854 289.838 67.0767 289.348 66.8594C288.858 66.6378 288.471 66.3118 288.185 65.8814C287.904 65.4467 287.763 64.9055 287.763 64.2578C287.763 63.7124 287.863 63.2543 288.064 62.8835C288.264 62.5128 288.537 62.2145 288.882 61.9886C289.227 61.7628 289.619 61.5923 290.058 61.4773C290.501 61.3622 290.966 61.2812 291.451 61.2344C292.022 61.1747 292.483 61.1193 292.832 61.0682C293.181 61.0128 293.435 60.9318 293.593 60.8253C293.75 60.7187 293.829 60.5611 293.829 60.3523V60.3139C293.829 59.9091 293.701 59.5959 293.446 59.3743C293.194 59.1527 292.836 59.0419 292.372 59.0419C291.882 59.0419 291.492 59.1506 291.202 59.3679C290.912 59.581 290.721 59.8494 290.627 60.1733L288.108 59.9688C288.236 59.3722 288.488 58.8565 288.863 58.4219C289.238 57.983 289.721 57.6463 290.314 57.4119C290.91 57.1733 291.6 57.054 292.385 57.054C292.93 57.054 293.452 57.1179 293.951 57.2457C294.453 57.3736 294.899 57.5717 295.287 57.8402C295.679 58.1087 295.988 58.4538 296.213 58.8757C296.439 59.2933 296.552 59.794 296.552 60.3778V67H293.97V65.6385H293.893C293.735 65.9453 293.525 66.2159 293.26 66.4503C292.996 66.6804 292.679 66.8615 292.308 66.9936C291.937 67.1214 291.509 67.1854 291.023 67.1854ZM291.803 65.3061C292.203 65.3061 292.557 65.2273 292.864 65.0696C293.171 64.9077 293.412 64.6903 293.586 64.4176C293.761 64.1449 293.848 63.8359 293.848 63.4908V62.4489C293.763 62.5043 293.646 62.5554 293.497 62.6023C293.352 62.6449 293.188 62.6854 293.005 62.7237C292.821 62.7578 292.638 62.7898 292.455 62.8196C292.272 62.8452 292.105 62.8686 291.956 62.8899C291.637 62.9368 291.358 63.0114 291.119 63.1136C290.88 63.2159 290.695 63.3544 290.563 63.5291C290.431 63.6996 290.365 63.9126 290.365 64.1683C290.365 64.5391 290.499 64.8224 290.767 65.0185C291.04 65.2102 291.385 65.3061 291.803 65.3061ZM302.283 67.1598C301.537 67.1598 300.862 66.968 300.256 66.5845C299.656 66.1967 299.178 65.6278 298.825 64.8778C298.475 64.1236 298.3 63.1989 298.3 62.1037C298.3 60.9787 298.482 60.0433 298.844 59.2976C299.206 58.5476 299.688 57.9872 300.288 57.6165C300.893 57.2415 301.556 57.054 302.276 57.054C302.826 57.054 303.284 57.1477 303.651 57.3352C304.021 57.5185 304.32 57.7486 304.545 58.0256C304.776 58.2983 304.95 58.5668 305.07 58.831H305.153V53.9091H307.869V67H305.185V65.4276H305.07C304.942 65.7003 304.761 65.9709 304.526 66.2393C304.296 66.5036 303.996 66.723 303.625 66.8977C303.259 67.0724 302.811 67.1598 302.283 67.1598ZM303.146 64.9929C303.585 64.9929 303.955 64.8736 304.258 64.6349C304.565 64.392 304.799 64.0533 304.961 63.6186C305.127 63.1839 305.21 62.6747 305.21 62.0909C305.21 61.5071 305.129 61 304.967 60.5696C304.805 60.1392 304.571 59.8068 304.264 59.5724C303.957 59.3381 303.585 59.2209 303.146 59.2209C302.698 59.2209 302.321 59.3423 302.014 59.5852C301.707 59.8281 301.475 60.1648 301.317 60.5952C301.16 61.0256 301.081 61.5241 301.081 62.0909C301.081 62.6619 301.16 63.1669 301.317 63.6058C301.479 64.0405 301.712 64.3814 302.014 64.6286C302.321 64.8714 302.698 64.9929 303.146 64.9929ZM325.876 58.4922H323.076C323.025 58.13 322.92 57.8082 322.763 57.527C322.605 57.2415 322.403 56.9986 322.156 56.7983C321.908 56.598 321.623 56.4446 321.299 56.3381C320.979 56.2315 320.632 56.1783 320.257 56.1783C319.58 56.1783 318.989 56.3466 318.487 56.6832C317.984 57.0156 317.594 57.5014 317.317 58.1406C317.04 58.7756 316.901 59.5469 316.901 60.4545C316.901 61.3878 317.04 62.1719 317.317 62.8068C317.598 63.4418 317.99 63.9212 318.493 64.245C318.996 64.5689 319.577 64.7308 320.238 64.7308C320.609 64.7308 320.952 64.6818 321.267 64.5838C321.587 64.4858 321.87 64.343 322.117 64.1555C322.364 63.9638 322.569 63.7315 322.731 63.4588C322.897 63.1861 323.012 62.875 323.076 62.5256L325.876 62.5384C325.803 63.1392 325.622 63.7188 325.332 64.277C325.047 64.831 324.661 65.3274 324.175 65.7663C323.694 66.201 323.119 66.5462 322.45 66.8018C321.785 67.0533 321.033 67.179 320.193 67.179C319.026 67.179 317.982 66.9148 317.061 66.3864C316.145 65.858 315.42 65.093 314.888 64.0916C314.359 63.0902 314.095 61.8778 314.095 60.4545C314.095 59.027 314.364 57.8125 314.901 56.8111C315.438 55.8097 316.166 55.0469 317.087 54.5227C318.007 53.9943 319.043 53.7301 320.193 53.7301C320.952 53.7301 321.655 53.8366 322.303 54.0497C322.955 54.2628 323.532 54.5739 324.035 54.983C324.538 55.3878 324.947 55.8842 325.262 56.4723C325.582 57.0604 325.786 57.7337 325.876 58.4922ZM332.245 67.1918C331.252 67.1918 330.394 66.9808 329.669 66.5589C328.949 66.1328 328.393 65.5405 328.001 64.782C327.609 64.0192 327.413 63.1349 327.413 62.1293C327.413 61.1151 327.609 60.2287 328.001 59.4702C328.393 58.7074 328.949 58.1151 329.669 57.6932C330.394 57.267 331.252 57.054 332.245 57.054C333.238 57.054 334.095 57.267 334.815 57.6932C335.539 58.1151 336.098 58.7074 336.49 59.4702C336.882 60.2287 337.078 61.1151 337.078 62.1293C337.078 63.1349 336.882 64.0192 336.49 64.782C336.098 65.5405 335.539 66.1328 334.815 66.5589C334.095 66.9808 333.238 67.1918 332.245 67.1918ZM332.258 65.0824C332.71 65.0824 333.087 64.9545 333.39 64.6989C333.692 64.4389 333.92 64.0852 334.074 63.6378C334.231 63.1903 334.31 62.6811 334.31 62.1101C334.31 61.5391 334.231 61.0298 334.074 60.5824C333.92 60.1349 333.692 59.7812 333.39 59.5213C333.087 59.2614 332.71 59.1314 332.258 59.1314C331.802 59.1314 331.419 59.2614 331.108 59.5213C330.801 59.7812 330.569 60.1349 330.411 60.5824C330.257 61.0298 330.181 61.5391 330.181 62.1101C330.181 62.6811 330.257 63.1903 330.411 63.6378C330.569 64.0852 330.801 64.4389 331.108 64.6989C331.419 64.9545 331.802 65.0824 332.258 65.0824ZM342.466 67.1598C341.721 67.1598 341.045 66.968 340.44 66.5845C339.839 66.1967 339.362 65.6278 339.008 64.8778C338.659 64.1236 338.484 63.1989 338.484 62.1037C338.484 60.9787 338.665 60.0433 339.027 59.2976C339.39 58.5476 339.871 57.9872 340.472 57.6165C341.077 57.2415 341.74 57.054 342.46 57.054C343.01 57.054 343.468 57.1477 343.834 57.3352C344.205 57.5185 344.503 57.7486 344.729 58.0256C344.959 58.2983 345.134 58.5668 345.253 58.831H345.336V53.9091H348.053V67H345.368V65.4276H345.253C345.125 65.7003 344.944 65.9709 344.71 66.2393C344.48 66.5036 344.179 66.723 343.809 66.8977C343.442 67.0724 342.995 67.1598 342.466 67.1598ZM343.329 64.9929C343.768 64.9929 344.139 64.8736 344.441 64.6349C344.748 64.392 344.983 64.0533 345.145 63.6186C345.311 63.1839 345.394 62.6747 345.394 62.0909C345.394 61.5071 345.313 61 345.151 60.5696C344.989 60.1392 344.755 59.8068 344.448 59.5724C344.141 59.3381 343.768 59.2209 343.329 59.2209C342.882 59.2209 342.505 59.3423 342.198 59.5852C341.891 59.8281 341.659 60.1648 341.501 60.5952C341.343 61.0256 341.265 61.5241 341.265 62.0909C341.265 62.6619 341.343 63.1669 341.501 63.6058C341.663 64.0405 341.895 64.3814 342.198 64.6286C342.505 64.8714 342.882 64.9929 343.329 64.9929ZM354.766 67.1918C353.756 67.1918 352.887 66.9872 352.158 66.5781C351.434 66.1648 350.876 65.581 350.483 64.8267C350.091 64.0682 349.895 63.1712 349.895 62.1357C349.895 61.1257 350.091 60.2393 350.483 59.4766C350.876 58.7138 351.427 58.1193 352.139 57.6932C352.855 57.267 353.694 57.054 354.657 57.054C355.305 57.054 355.908 57.1584 356.466 57.3672C357.029 57.5717 357.519 57.8807 357.937 58.294C358.358 58.7074 358.687 59.2273 358.921 59.8537C359.155 60.4759 359.273 61.2045 359.273 62.0398V62.7876H350.982V61.1001H356.709C356.709 60.7081 356.624 60.3608 356.454 60.0582C356.283 59.7557 356.047 59.5192 355.744 59.3487C355.446 59.174 355.099 59.0866 354.702 59.0866C354.289 59.0866 353.922 59.1825 353.603 59.3743C353.287 59.5618 353.04 59.8153 352.861 60.1349C352.682 60.4503 352.591 60.8018 352.586 61.1896V62.794C352.586 63.2798 352.676 63.6996 352.855 64.0533C353.038 64.407 353.296 64.6797 353.628 64.8714C353.961 65.0632 354.355 65.1591 354.811 65.1591C355.113 65.1591 355.39 65.1165 355.642 65.0312C355.893 64.946 356.108 64.8182 356.287 64.6477C356.466 64.4773 356.603 64.2685 356.697 64.0213L359.215 64.1875C359.087 64.7926 358.825 65.321 358.429 65.7727C358.037 66.2202 357.53 66.5696 356.907 66.821C356.29 67.0682 355.576 67.1918 354.766 67.1918Z" fill="#081735"/>
    <line x1="24" y1="95.5" x2="471" y2="95.5" stroke="#E6E8F0"/>
    <path d="M92.8999 138.679C91.9453 138.679 91.0952 138.515 90.3494 138.187C89.608 137.854 89.022 137.398 88.5916 136.819C88.1655 136.235 87.946 135.562 87.9332 134.799H90.7202C90.7372 135.119 90.8416 135.4 91.0334 135.643C91.2294 135.881 91.4893 136.067 91.8132 136.199C92.1371 136.331 92.5014 136.397 92.9062 136.397C93.3281 136.397 93.701 136.322 94.0249 136.173C94.3487 136.024 94.6023 135.817 94.7855 135.553C94.9688 135.289 95.0604 134.984 95.0604 134.639C95.0604 134.29 94.9624 133.981 94.7663 133.712C94.5746 133.44 94.2976 133.227 93.9354 133.073C93.5774 132.92 93.1513 132.843 92.657 132.843H91.4361V130.81H92.657C93.0746 130.81 93.4432 130.738 93.7628 130.593C94.0866 130.448 94.3381 130.248 94.517 129.992C94.696 129.732 94.7855 129.43 94.7855 129.085C94.7855 128.756 94.7067 128.469 94.549 128.222C94.3956 127.97 94.1783 127.774 93.897 127.634C93.62 127.493 93.2962 127.423 92.9254 127.423C92.5504 127.423 92.2074 127.491 91.8963 127.627C91.5852 127.759 91.3359 127.949 91.1484 128.196C90.9609 128.443 90.8608 128.733 90.848 129.065H88.1953C88.2081 128.311 88.4233 127.646 88.8409 127.071C89.2585 126.496 89.821 126.046 90.5284 125.722C91.2401 125.394 92.0433 125.23 92.9382 125.23C93.8416 125.23 94.6321 125.394 95.3097 125.722C95.9872 126.05 96.5135 126.494 96.8885 127.052C97.2678 127.606 97.4553 128.228 97.451 128.918C97.4553 129.651 97.2273 130.263 96.767 130.753C96.3111 131.243 95.7166 131.554 94.9837 131.686V131.788C95.9467 131.912 96.6797 132.246 97.1825 132.792C97.6896 133.333 97.9411 134.011 97.9368 134.825C97.9411 135.57 97.7259 136.233 97.2912 136.812C96.8608 137.392 96.2663 137.848 95.5078 138.18C94.7493 138.513 93.88 138.679 92.8999 138.679ZM105.059 138.788C103.96 138.783 103.014 138.513 102.221 137.976C101.433 137.439 100.825 136.661 100.399 135.643C99.9775 134.624 99.7686 133.399 99.7729 131.967C99.7729 130.54 99.9838 129.323 100.406 128.317C100.832 127.312 101.439 126.547 102.227 126.023C103.02 125.494 103.964 125.23 105.059 125.23C106.154 125.23 107.096 125.494 107.884 126.023C108.677 126.551 109.286 127.318 109.713 128.324C110.139 129.325 110.35 130.54 110.345 131.967C110.345 133.403 110.132 134.631 109.706 135.649C109.284 136.668 108.679 137.445 107.891 137.982C107.102 138.519 106.159 138.788 105.059 138.788ZM105.059 136.493C105.809 136.493 106.408 136.116 106.855 135.362C107.303 134.607 107.524 133.476 107.52 131.967C107.52 130.974 107.418 130.148 107.213 129.487C107.013 128.827 106.727 128.33 106.357 127.998C105.99 127.665 105.558 127.499 105.059 127.499C104.313 127.499 103.717 127.872 103.269 128.618C102.822 129.364 102.596 130.48 102.592 131.967C102.592 132.973 102.692 133.812 102.892 134.486C103.097 135.155 103.384 135.658 103.755 135.994C104.126 136.327 104.561 136.493 105.059 136.493ZM116.231 136.506V127.455H118.519V136.506H116.231ZM112.849 133.124V130.836H121.901V133.124H112.849Z" fill="#081735"/>
    <path d="M45.233 160.5V150.318H46.4659V159.406H51.1989V160.5H45.233ZM55.196 160.679C54.7121 160.679 54.273 160.588 53.8786 160.406C53.4841 160.22 53.1709 159.953 52.9389 159.605C52.7069 159.254 52.5909 158.83 52.5909 158.332C52.5909 157.895 52.6771 157.54 52.8494 157.268C53.0218 156.993 53.2521 156.778 53.5405 156.622C53.8288 156.466 54.147 156.35 54.495 156.274C54.8464 156.195 55.1993 156.132 55.554 156.085C56.018 156.026 56.3942 155.981 56.6825 155.951C56.9742 155.918 57.1863 155.863 57.3189 155.787C57.4548 155.711 57.5227 155.578 57.5227 155.389V155.349C57.5227 154.859 57.3885 154.478 57.12 154.206C56.8549 153.934 56.4522 153.798 55.9119 153.798C55.3518 153.798 54.9126 153.921 54.5945 154.166C54.2763 154.411 54.0526 154.673 53.9233 154.952L52.8097 154.554C53.0085 154.09 53.2737 153.729 53.6051 153.47C53.9399 153.208 54.3045 153.026 54.6989 152.923C55.0966 152.817 55.4877 152.764 55.8722 152.764C56.1174 152.764 56.3991 152.794 56.7173 152.854C57.0388 152.91 57.3487 153.028 57.647 153.207C57.9486 153.386 58.1989 153.656 58.3977 154.017C58.5966 154.378 58.696 154.862 58.696 155.469V160.5H57.5227V159.466H57.4631C57.3835 159.632 57.2509 159.809 57.0653 159.998C56.8797 160.187 56.6328 160.348 56.3246 160.48C56.0163 160.613 55.6402 160.679 55.196 160.679ZM55.375 159.625C55.839 159.625 56.2301 159.534 56.5483 159.352C56.8698 159.169 57.1117 158.934 57.2741 158.646C57.4399 158.357 57.5227 158.054 57.5227 157.736V156.662C57.473 156.722 57.3636 156.776 57.1946 156.826C57.0289 156.872 56.8366 156.914 56.6179 156.95C56.4025 156.983 56.192 157.013 55.9865 157.04C55.7843 157.063 55.6203 157.083 55.4943 157.099C55.1894 157.139 54.9044 157.204 54.6392 157.293C54.3774 157.379 54.1652 157.51 54.0028 157.686C53.8438 157.858 53.7642 158.094 53.7642 158.392C53.7642 158.8 53.915 159.108 54.2166 159.317C54.5215 159.522 54.9077 159.625 55.375 159.625ZM62.0108 155.906V160.5H60.8375V152.864H61.9711V154.057H62.0705C62.2495 153.669 62.5212 153.357 62.8858 153.122C63.2504 152.884 63.7211 152.764 64.2978 152.764C64.8148 152.764 65.2672 152.87 65.655 153.082C66.0428 153.291 66.3444 153.609 66.5598 154.037C66.7753 154.461 66.883 154.998 66.883 155.648V160.5H65.7097V155.727C65.7097 155.127 65.5539 154.66 65.2424 154.325C64.9308 153.987 64.5033 153.818 63.9597 153.818C63.5852 153.818 63.2504 153.899 62.9554 154.062C62.6638 154.224 62.4334 154.461 62.2644 154.773C62.0953 155.084 62.0108 155.462 62.0108 155.906ZM72.1094 163.523C71.5426 163.523 71.0554 163.45 70.6477 163.304C70.2401 163.161 69.9003 162.973 69.6286 162.737C69.3601 162.505 69.1463 162.257 68.9872 161.991L69.9219 161.335C70.0279 161.474 70.1622 161.634 70.3246 161.812C70.487 161.995 70.709 162.152 70.9908 162.285C71.2758 162.421 71.6487 162.489 72.1094 162.489C72.7259 162.489 73.2346 162.339 73.6357 162.041C74.0367 161.743 74.2372 161.276 74.2372 160.639V159.088H74.1378C74.0516 159.227 73.929 159.4 73.7699 159.605C73.6141 159.807 73.3887 159.988 73.0938 160.147C72.8021 160.303 72.4077 160.381 71.9105 160.381C71.294 160.381 70.7405 160.235 70.25 159.943C69.7628 159.652 69.3767 159.227 69.0916 158.67C68.8099 158.114 68.669 157.437 68.669 156.642C68.669 155.86 68.8066 155.179 69.0817 154.599C69.3568 154.015 69.7396 153.565 70.2301 153.246C70.7206 152.925 71.2874 152.764 71.9304 152.764C72.4276 152.764 72.822 152.847 73.1136 153.013C73.4086 153.175 73.634 153.361 73.7898 153.57C73.9489 153.775 74.0715 153.944 74.1577 154.077H74.277V152.864H75.4105V160.719C75.4105 161.375 75.2614 161.909 74.9631 162.32C74.6681 162.734 74.2704 163.037 73.7699 163.229C73.2727 163.425 72.7192 163.523 72.1094 163.523ZM72.0696 159.327C72.5402 159.327 72.938 159.219 73.2628 159.004C73.5876 158.788 73.8345 158.478 74.0036 158.074C74.1726 157.67 74.2571 157.186 74.2571 156.622C74.2571 156.072 74.1742 155.586 74.0085 155.165C73.8428 154.745 73.5975 154.415 73.2727 154.176C72.9479 153.937 72.5469 153.818 72.0696 153.818C71.5724 153.818 71.1581 153.944 70.8267 154.196C70.4986 154.448 70.2517 154.786 70.0859 155.21C69.9235 155.634 69.8423 156.105 69.8423 156.622C69.8423 157.152 69.9252 157.621 70.0909 158.029C70.2599 158.433 70.5085 158.752 70.8366 158.984C71.1681 159.212 71.5791 159.327 72.0696 159.327ZM82.3707 157.378V152.864H83.544V160.5H82.3707V159.207H82.2912C82.1122 159.595 81.8338 159.925 81.456 160.197C81.0781 160.465 80.6009 160.599 80.0241 160.599C79.5469 160.599 79.1226 160.495 78.7514 160.286C78.3802 160.074 78.0885 159.756 77.8764 159.332C77.6643 158.904 77.5582 158.366 77.5582 157.716V152.864H78.7315V157.636C78.7315 158.193 78.8873 158.637 79.1989 158.969C79.5137 159.3 79.9148 159.466 80.402 159.466C80.6937 159.466 80.9903 159.391 81.2919 159.242C81.5968 159.093 81.852 158.864 82.0575 158.556C82.2663 158.248 82.3707 157.855 82.3707 157.378ZM87.9402 160.679C87.4563 160.679 87.0171 160.588 86.6227 160.406C86.2283 160.22 85.9151 159.953 85.6831 159.605C85.4511 159.254 85.335 158.83 85.335 158.332C85.335 157.895 85.4212 157.54 85.5936 157.268C85.7659 156.993 85.9963 156.778 86.2846 156.622C86.573 156.466 86.8912 156.35 87.2392 156.274C87.5905 156.195 87.9435 156.132 88.2981 156.085C88.7621 156.026 89.1383 155.981 89.4267 155.951C89.7183 155.918 89.9305 155.863 90.063 155.787C90.1989 155.711 90.2669 155.578 90.2669 155.389V155.349C90.2669 154.859 90.1326 154.478 89.8642 154.206C89.599 153.934 89.1963 153.798 88.6561 153.798C88.0959 153.798 87.6568 153.921 87.3386 154.166C87.0204 154.411 86.7967 154.673 86.6674 154.952L85.5538 154.554C85.7527 154.09 86.0178 153.729 86.3493 153.47C86.684 153.208 87.0486 153.026 87.443 152.923C87.8407 152.817 88.2318 152.764 88.6163 152.764C88.8616 152.764 89.1433 152.794 89.4615 152.854C89.783 152.91 90.0929 153.028 90.3912 153.207C90.6928 153.386 90.943 153.656 91.1419 154.017C91.3407 154.378 91.4402 154.862 91.4402 155.469V160.5H90.2669V159.466H90.2072C90.1277 159.632 89.9951 159.809 89.8095 159.998C89.6239 160.187 89.377 160.348 89.0687 160.48C88.7605 160.613 88.3843 160.679 87.9402 160.679ZM88.1191 159.625C88.5832 159.625 88.9743 159.534 89.2924 159.352C89.6139 159.169 89.8559 158.934 90.0183 158.646C90.184 158.357 90.2669 158.054 90.2669 157.736V156.662C90.2172 156.722 90.1078 156.776 89.9387 156.826C89.773 156.872 89.5808 156.914 89.362 156.95C89.1466 156.983 88.9361 157.013 88.7306 157.04C88.5285 157.063 88.3644 157.083 88.2385 157.099C87.9335 157.139 87.6485 157.204 87.3833 157.293C87.1215 157.379 86.9094 157.51 86.747 157.686C86.5879 157.858 86.5083 158.094 86.5083 158.392C86.5083 158.8 86.6592 159.108 86.9608 159.317C87.2657 159.522 87.6518 159.625 88.1191 159.625ZM96.6641 163.523C96.0973 163.523 95.6101 163.45 95.2024 163.304C94.7947 163.161 94.455 162.973 94.1832 162.737C93.9148 162.505 93.701 162.257 93.5419 161.991L94.4766 161.335C94.5826 161.474 94.7169 161.634 94.8793 161.812C95.0417 161.995 95.2637 162.152 95.5455 162.285C95.8305 162.421 96.2034 162.489 96.6641 162.489C97.2805 162.489 97.7893 162.339 98.1903 162.041C98.5914 161.743 98.7919 161.276 98.7919 160.639V159.088H98.6925C98.6063 159.227 98.4837 159.4 98.3246 159.605C98.1688 159.807 97.9434 159.988 97.6484 160.147C97.3568 160.303 96.9624 160.381 96.4652 160.381C95.8487 160.381 95.2952 160.235 94.8047 159.943C94.3175 159.652 93.9313 159.227 93.6463 158.67C93.3646 158.114 93.2237 157.437 93.2237 156.642C93.2237 155.86 93.3613 155.179 93.6364 154.599C93.9115 154.015 94.2943 153.565 94.7848 153.246C95.2753 152.925 95.8421 152.764 96.4851 152.764C96.9822 152.764 97.3767 152.847 97.6683 153.013C97.9633 153.175 98.1887 153.361 98.3445 153.57C98.5036 153.775 98.6262 153.944 98.7124 154.077H98.8317V152.864H99.9652V160.719C99.9652 161.375 99.8161 161.909 99.5178 162.32C99.2228 162.734 98.825 163.037 98.3246 163.229C97.8274 163.425 97.2739 163.523 96.6641 163.523ZM96.6243 159.327C97.0949 159.327 97.4927 159.219 97.8175 159.004C98.1423 158.788 98.3892 158.478 98.5582 158.074C98.7273 157.67 98.8118 157.186 98.8118 156.622C98.8118 156.072 98.7289 155.586 98.5632 155.165C98.3975 154.745 98.1522 154.415 97.8274 154.176C97.5026 153.937 97.1016 153.818 96.6243 153.818C96.1271 153.818 95.7128 153.944 95.3814 154.196C95.0533 154.448 94.8063 154.786 94.6406 155.21C94.4782 155.634 94.397 156.105 94.397 156.622C94.397 157.152 94.4799 157.621 94.6456 158.029C94.8146 158.433 95.0632 158.752 95.3913 158.984C95.7228 159.212 96.1338 159.327 96.6243 159.327ZM105.315 160.659C104.579 160.659 103.944 160.497 103.411 160.172C102.88 159.844 102.471 159.386 102.183 158.8C101.897 158.21 101.755 157.524 101.755 156.741C101.755 155.959 101.897 155.27 102.183 154.673C102.471 154.073 102.872 153.606 103.386 153.271C103.903 152.933 104.506 152.764 105.195 152.764C105.593 152.764 105.986 152.83 106.374 152.963C106.761 153.096 107.114 153.311 107.433 153.609C107.751 153.904 108.004 154.295 108.193 154.783C108.382 155.27 108.477 155.87 108.477 156.582V157.08H102.59V156.065H107.283C107.283 155.634 107.197 155.25 107.025 154.912C106.856 154.574 106.614 154.307 106.299 154.112C105.987 153.916 105.62 153.818 105.195 153.818C104.728 153.818 104.324 153.934 103.982 154.166C103.644 154.395 103.384 154.693 103.202 155.061C103.019 155.429 102.928 155.823 102.928 156.244V156.92C102.928 157.497 103.028 157.986 103.227 158.387C103.429 158.785 103.709 159.088 104.067 159.297C104.425 159.502 104.841 159.605 105.315 159.605C105.623 159.605 105.901 159.562 106.15 159.476C106.402 159.386 106.619 159.254 106.801 159.078C106.983 158.899 107.124 158.677 107.224 158.412L108.357 158.73C108.238 159.115 108.037 159.453 107.756 159.744C107.474 160.033 107.126 160.258 106.712 160.42C106.297 160.58 105.832 160.659 105.315 160.659ZM119.926 152.864C119.866 152.36 119.625 151.969 119.2 151.69C118.776 151.412 118.256 151.273 117.639 151.273C117.188 151.273 116.794 151.346 116.456 151.491C116.121 151.637 115.859 151.838 115.67 152.093C115.485 152.348 115.392 152.638 115.392 152.963C115.392 153.235 115.457 153.469 115.586 153.664C115.719 153.856 115.888 154.017 116.093 154.146C116.299 154.272 116.514 154.377 116.739 154.46C116.965 154.539 117.172 154.604 117.361 154.653L118.395 154.932C118.66 155.001 118.955 155.098 119.28 155.22C119.608 155.343 119.921 155.51 120.219 155.722C120.521 155.931 120.77 156.2 120.965 156.528C121.161 156.856 121.259 157.259 121.259 157.736C121.259 158.286 121.114 158.783 120.826 159.227C120.541 159.671 120.123 160.024 119.573 160.286C119.026 160.548 118.362 160.679 117.58 160.679C116.85 160.679 116.219 160.561 115.685 160.326C115.155 160.091 114.737 159.763 114.433 159.342C114.131 158.921 113.96 158.432 113.92 157.875H115.193C115.226 158.259 115.356 158.578 115.581 158.83C115.81 159.078 116.098 159.264 116.446 159.386C116.797 159.506 117.175 159.565 117.58 159.565C118.05 159.565 118.473 159.489 118.847 159.337C119.222 159.181 119.518 158.965 119.737 158.69C119.956 158.412 120.065 158.087 120.065 157.716C120.065 157.378 119.971 157.103 119.782 156.891C119.593 156.679 119.344 156.506 119.036 156.374C118.728 156.241 118.395 156.125 118.037 156.026L116.784 155.668C115.989 155.439 115.359 155.112 114.895 154.688C114.431 154.264 114.199 153.709 114.199 153.023C114.199 152.453 114.353 151.955 114.661 151.531C114.973 151.104 115.39 150.772 115.914 150.537C116.441 150.298 117.029 150.179 117.679 150.179C118.335 150.179 118.919 150.297 119.429 150.532C119.939 150.764 120.344 151.082 120.642 151.487C120.944 151.891 121.103 152.35 121.119 152.864H119.926ZM127.939 157.378V152.864H129.112V160.5H127.939V159.207H127.86C127.681 159.595 127.402 159.925 127.024 160.197C126.646 160.465 126.169 160.599 125.593 160.599C125.115 160.599 124.691 160.495 124.32 160.286C123.949 160.074 123.657 159.756 123.445 159.332C123.233 158.904 123.127 158.366 123.127 157.716V152.864H124.3V157.636C124.3 158.193 124.456 158.637 124.767 158.969C125.082 159.3 125.483 159.466 125.97 159.466C126.262 159.466 126.559 159.391 126.86 159.242C127.165 159.093 127.42 158.864 127.626 158.556C127.835 158.248 127.939 157.855 127.939 157.378ZM131.261 163.364V152.864H132.395V154.077H132.534C132.62 153.944 132.74 153.775 132.892 153.57C133.048 153.361 133.27 153.175 133.558 153.013C133.85 152.847 134.244 152.764 134.741 152.764C135.384 152.764 135.951 152.925 136.442 153.246C136.932 153.568 137.315 154.024 137.59 154.614C137.865 155.204 138.003 155.9 138.003 156.702C138.003 157.51 137.865 158.211 137.59 158.805C137.315 159.395 136.934 159.852 136.447 160.177C135.96 160.498 135.398 160.659 134.761 160.659C134.271 160.659 133.878 160.578 133.583 160.415C133.288 160.25 133.061 160.062 132.902 159.854C132.743 159.642 132.62 159.466 132.534 159.327H132.435V163.364H131.261ZM132.415 156.682C132.415 157.259 132.499 157.767 132.668 158.208C132.837 158.646 133.084 158.989 133.409 159.237C133.734 159.482 134.132 159.605 134.602 159.605C135.093 159.605 135.502 159.476 135.83 159.217C136.162 158.955 136.41 158.604 136.576 158.163C136.745 157.719 136.83 157.225 136.83 156.682C136.83 156.145 136.747 155.661 136.581 155.23C136.419 154.796 136.172 154.453 135.84 154.201C135.512 153.946 135.099 153.818 134.602 153.818C134.125 153.818 133.724 153.939 133.399 154.181C133.074 154.42 132.829 154.754 132.663 155.185C132.498 155.613 132.415 156.112 132.415 156.682ZM139.793 163.364V152.864H140.926V154.077H141.065C141.152 153.944 141.271 153.775 141.423 153.57C141.579 153.361 141.801 153.175 142.089 153.013C142.381 152.847 142.776 152.764 143.273 152.764C143.916 152.764 144.482 152.925 144.973 153.246C145.464 153.568 145.846 154.024 146.121 154.614C146.397 155.204 146.534 155.9 146.534 156.702C146.534 157.51 146.397 158.211 146.121 158.805C145.846 159.395 145.465 159.852 144.978 160.177C144.491 160.498 143.929 160.659 143.293 160.659C142.802 160.659 142.409 160.578 142.114 160.415C141.819 160.25 141.592 160.062 141.433 159.854C141.274 159.642 141.152 159.466 141.065 159.327H140.966V163.364H139.793ZM140.946 156.682C140.946 157.259 141.031 157.767 141.2 158.208C141.369 158.646 141.616 158.989 141.94 159.237C142.265 159.482 142.663 159.605 143.134 159.605C143.624 159.605 144.033 159.476 144.362 159.217C144.693 158.955 144.942 158.604 145.107 158.163C145.276 157.719 145.361 157.225 145.361 156.682C145.361 156.145 145.278 155.661 145.112 155.23C144.95 154.796 144.703 154.453 144.371 154.201C144.043 153.946 143.631 153.818 143.134 153.818C142.656 153.818 142.255 153.939 141.93 154.181C141.606 154.42 141.36 154.754 141.195 155.185C141.029 155.613 140.946 156.112 140.946 156.682ZM151.426 160.659C150.737 160.659 150.132 160.495 149.612 160.167C149.094 159.839 148.69 159.38 148.398 158.79C148.11 158.2 147.966 157.51 147.966 156.722C147.966 155.926 148.11 155.232 148.398 154.638C148.69 154.045 149.094 153.585 149.612 153.256C150.132 152.928 150.737 152.764 151.426 152.764C152.116 152.764 152.719 152.928 153.236 153.256C153.756 153.585 154.161 154.045 154.449 154.638C154.741 155.232 154.886 155.926 154.886 156.722C154.886 157.51 154.741 158.2 154.449 158.79C154.161 159.38 153.756 159.839 153.236 160.167C152.719 160.495 152.116 160.659 151.426 160.659ZM151.426 159.605C151.95 159.605 152.381 159.471 152.719 159.202C153.057 158.934 153.307 158.581 153.469 158.143C153.632 157.706 153.713 157.232 153.713 156.722C153.713 156.211 153.632 155.736 153.469 155.295C153.307 154.854 153.057 154.498 152.719 154.226C152.381 153.954 151.95 153.818 151.426 153.818C150.902 153.818 150.472 153.954 150.134 154.226C149.795 154.498 149.545 154.854 149.383 155.295C149.22 155.736 149.139 156.211 149.139 156.722C149.139 157.232 149.22 157.706 149.383 158.143C149.545 158.581 149.795 158.934 150.134 159.202C150.472 159.471 150.902 159.605 151.426 159.605ZM156.677 160.5V152.864H157.811V154.017H157.89C158.03 153.639 158.282 153.333 158.646 153.097C159.011 152.862 159.422 152.744 159.879 152.744C159.965 152.744 160.073 152.746 160.202 152.749C160.331 152.753 160.429 152.758 160.496 152.764V153.957C160.456 153.947 160.365 153.933 160.222 153.913C160.083 153.889 159.935 153.878 159.78 153.878C159.408 153.878 159.077 153.956 158.785 154.112C158.497 154.264 158.268 154.476 158.099 154.748C157.934 155.016 157.851 155.323 157.851 155.668V160.5H156.677ZM165.686 152.864V153.858H161.729V152.864H165.686ZM162.882 151.034H164.055V158.312C164.055 158.644 164.103 158.893 164.199 159.058C164.299 159.221 164.425 159.33 164.577 159.386C164.733 159.439 164.897 159.466 165.069 159.466C165.199 159.466 165.305 159.459 165.388 159.446C165.47 159.429 165.537 159.416 165.586 159.406L165.825 160.46C165.746 160.49 165.635 160.52 165.492 160.55C165.349 160.583 165.169 160.599 164.95 160.599C164.619 160.599 164.294 160.528 163.976 160.386C163.661 160.243 163.399 160.026 163.19 159.734C162.985 159.443 162.882 159.075 162.882 158.631V151.034Z" fill="#171717"/>
    <path d="M233.756 125.409V138.5H230.989V128.036H230.912L227.914 129.915V127.461L231.155 125.409H233.756ZM242.001 138.788C240.901 138.783 239.955 138.513 239.162 137.976C238.374 137.439 237.767 136.661 237.341 135.643C236.919 134.624 236.71 133.399 236.714 131.967C236.714 130.54 236.925 129.323 237.347 128.317C237.773 127.312 238.381 126.547 239.169 126.023C239.961 125.494 240.905 125.23 242.001 125.23C243.096 125.23 244.037 125.494 244.826 126.023C245.618 126.551 246.228 127.318 246.654 128.324C247.08 129.325 247.291 130.54 247.287 131.967C247.287 133.403 247.074 134.631 246.648 135.649C246.226 136.668 245.621 137.445 244.832 137.982C244.044 138.519 243.1 138.788 242.001 138.788ZM242.001 136.493C242.751 136.493 243.349 136.116 243.797 135.362C244.244 134.607 244.466 133.476 244.461 131.967C244.461 130.974 244.359 130.148 244.155 129.487C243.954 128.827 243.669 128.33 243.298 127.998C242.932 127.665 242.499 127.499 242.001 127.499C241.255 127.499 240.658 127.872 240.211 128.618C239.763 129.364 239.537 130.48 239.533 131.967C239.533 132.973 239.633 133.812 239.834 134.486C240.038 135.155 240.326 135.658 240.697 135.994C241.067 136.327 241.502 136.493 242.001 136.493ZM249.337 138.5V125.409H252.105V131.181H252.277L256.988 125.409H260.306L255.448 131.271L260.363 138.5H257.052L253.466 133.118L252.105 134.78V138.5H249.337ZM264.791 136.506V127.455H267.08V136.506H264.791ZM261.41 133.124V130.836H270.461V133.124H261.41Z" fill="#081735"/>
    <path d="M216.875 160.5H213.733V150.318H217.014C218.002 150.318 218.847 150.522 219.55 150.93C220.252 151.334 220.791 151.916 221.165 152.675C221.54 153.43 221.727 154.335 221.727 155.389C221.727 156.45 221.538 157.363 221.161 158.129C220.783 158.891 220.232 159.478 219.51 159.888C218.787 160.296 217.909 160.5 216.875 160.5ZM214.966 159.406H216.795C217.637 159.406 218.335 159.244 218.888 158.919C219.442 158.594 219.855 158.132 220.126 157.532C220.398 156.932 220.534 156.218 220.534 155.389C220.534 154.567 220.4 153.86 220.131 153.266C219.863 152.67 219.462 152.212 218.928 151.894C218.395 151.573 217.73 151.412 216.935 151.412H214.966V159.406ZM226.838 160.659C226.102 160.659 225.468 160.497 224.934 160.172C224.404 159.844 223.994 159.386 223.706 158.8C223.421 158.21 223.278 157.524 223.278 156.741C223.278 155.959 223.421 155.27 223.706 154.673C223.994 154.073 224.395 153.606 224.909 153.271C225.426 152.933 226.029 152.764 226.719 152.764C227.116 152.764 227.509 152.83 227.897 152.963C228.285 153.096 228.638 153.311 228.956 153.609C229.274 153.904 229.528 154.295 229.717 154.783C229.906 155.27 230 155.87 230 156.582V157.08H224.114V156.065H228.807C228.807 155.634 228.721 155.25 228.548 154.912C228.379 154.574 228.137 154.307 227.822 154.112C227.511 153.916 227.143 153.818 226.719 153.818C226.251 153.818 225.847 153.934 225.506 154.166C225.168 154.395 224.907 154.693 224.725 155.061C224.543 155.429 224.452 155.823 224.452 156.244V156.92C224.452 157.497 224.551 157.986 224.75 158.387C224.952 158.785 225.232 159.088 225.59 159.297C225.948 159.502 226.364 159.605 226.838 159.605C227.146 159.605 227.425 159.562 227.673 159.476C227.925 159.386 228.142 159.254 228.325 159.078C228.507 158.899 228.648 158.677 228.747 158.412L229.881 158.73C229.761 159.115 229.561 159.453 229.279 159.744C228.997 160.033 228.649 160.258 228.235 160.42C227.821 160.58 227.355 160.659 226.838 160.659ZM237.797 152.864L234.973 160.5H233.78L230.956 152.864H232.229L234.336 158.949H234.416L236.524 152.864H237.797ZM242.274 160.659C241.538 160.659 240.903 160.497 240.369 160.172C239.839 159.844 239.43 159.386 239.142 158.8C238.856 158.21 238.714 157.524 238.714 156.741C238.714 155.959 238.856 155.27 239.142 154.673C239.43 154.073 239.831 153.606 240.345 153.271C240.862 152.933 241.465 152.764 242.154 152.764C242.552 152.764 242.945 152.83 243.333 152.963C243.72 153.096 244.073 153.311 244.392 153.609C244.71 153.904 244.963 154.295 245.152 154.783C245.341 155.27 245.436 155.87 245.436 156.582V157.08H239.549V156.065H244.242C244.242 155.634 244.156 155.25 243.984 154.912C243.815 154.574 243.573 154.307 243.258 154.112C242.946 153.916 242.579 153.818 242.154 153.818C241.687 153.818 241.283 153.934 240.941 154.166C240.603 154.395 240.343 154.693 240.161 155.061C239.978 155.429 239.887 155.823 239.887 156.244V156.92C239.887 157.497 239.987 157.986 240.186 158.387C240.388 158.785 240.668 159.088 241.026 159.297C241.384 159.502 241.8 159.605 242.274 159.605C242.582 159.605 242.86 159.562 243.109 159.476C243.361 159.386 243.578 159.254 243.76 159.078C243.942 158.899 244.083 158.677 244.183 158.412L245.316 158.73C245.197 159.115 244.996 159.453 244.715 159.744C244.433 160.033 244.085 160.258 243.671 160.42C243.256 160.58 242.791 160.659 242.274 160.659ZM248.394 150.318V160.5H247.22V150.318H248.394ZM253.645 160.659C252.955 160.659 252.351 160.495 251.83 160.167C251.313 159.839 250.909 159.38 250.617 158.79C250.329 158.2 250.185 157.51 250.185 156.722C250.185 155.926 250.329 155.232 250.617 154.638C250.909 154.045 251.313 153.585 251.83 153.256C252.351 152.928 252.955 152.764 253.645 152.764C254.334 152.764 254.938 152.928 255.455 153.256C255.975 153.585 256.379 154.045 256.668 154.638C256.959 155.232 257.105 155.926 257.105 156.722C257.105 157.51 256.959 158.2 256.668 158.79C256.379 159.38 255.975 159.839 255.455 160.167C254.938 160.495 254.334 160.659 253.645 160.659ZM253.645 159.605C254.169 159.605 254.599 159.471 254.938 159.202C255.276 158.934 255.526 158.581 255.688 158.143C255.851 157.706 255.932 157.232 255.932 156.722C255.932 156.211 255.851 155.736 255.688 155.295C255.526 154.854 255.276 154.498 254.938 154.226C254.599 153.954 254.169 153.818 253.645 153.818C253.121 153.818 252.69 153.954 252.352 154.226C252.014 154.498 251.764 154.854 251.602 155.295C251.439 155.736 251.358 156.211 251.358 156.722C251.358 157.232 251.439 157.706 251.602 158.143C251.764 158.581 252.014 158.934 252.352 159.202C252.69 159.471 253.121 159.605 253.645 159.605ZM258.896 163.364V152.864H260.03V154.077H260.169C260.255 153.944 260.374 153.775 260.527 153.57C260.683 153.361 260.905 153.175 261.193 153.013C261.485 152.847 261.879 152.764 262.376 152.764C263.019 152.764 263.586 152.925 264.077 153.246C264.567 153.568 264.95 154.024 265.225 154.614C265.5 155.204 265.638 155.9 265.638 156.702C265.638 157.51 265.5 158.211 265.225 158.805C264.95 159.395 264.569 159.852 264.081 160.177C263.594 160.498 263.032 160.659 262.396 160.659C261.906 160.659 261.513 160.578 261.218 160.415C260.923 160.25 260.696 160.062 260.537 159.854C260.378 159.642 260.255 159.466 260.169 159.327H260.069V163.364H258.896ZM260.05 156.682C260.05 157.259 260.134 157.767 260.303 158.208C260.472 158.646 260.719 158.989 261.044 159.237C261.369 159.482 261.766 159.605 262.237 159.605C262.728 159.605 263.137 159.476 263.465 159.217C263.796 158.955 264.045 158.604 264.211 158.163C264.38 157.719 264.464 157.225 264.464 156.682C264.464 156.145 264.381 155.661 264.216 155.23C264.053 154.796 263.806 154.453 263.475 154.201C263.147 153.946 262.734 153.818 262.237 153.818C261.76 153.818 261.359 153.939 261.034 154.181C260.709 154.42 260.464 154.754 260.298 155.185C260.132 155.613 260.05 156.112 260.05 156.682ZM270.629 160.659C269.893 160.659 269.259 160.497 268.725 160.172C268.195 159.844 267.785 159.386 267.497 158.8C267.212 158.21 267.069 157.524 267.069 156.741C267.069 155.959 267.212 155.27 267.497 154.673C267.785 154.073 268.186 153.606 268.7 153.271C269.217 152.933 269.82 152.764 270.51 152.764C270.907 152.764 271.3 152.83 271.688 152.963C272.076 153.096 272.429 153.311 272.747 153.609C273.065 153.904 273.319 154.295 273.508 154.783C273.697 155.27 273.791 155.87 273.791 156.582V157.08H267.905V156.065H272.598C272.598 155.634 272.512 155.25 272.339 154.912C272.17 154.574 271.928 154.307 271.613 154.112C271.302 153.916 270.934 153.818 270.51 153.818C270.042 153.818 269.638 153.934 269.297 154.166C268.959 154.395 268.698 154.693 268.516 155.061C268.334 155.429 268.243 155.823 268.243 156.244V156.92C268.243 157.497 268.342 157.986 268.541 158.387C268.743 158.785 269.023 159.088 269.381 159.297C269.739 159.502 270.155 159.605 270.629 159.605C270.937 159.605 271.216 159.562 271.464 159.476C271.716 159.386 271.933 159.254 272.116 159.078C272.298 158.899 272.439 158.677 272.538 158.412L273.672 158.73C273.552 159.115 273.352 159.453 273.07 159.744C272.788 160.033 272.44 160.258 272.026 160.42C271.612 160.58 271.146 160.659 270.629 160.659ZM275.576 160.5V152.864H276.709V154.017H276.789C276.928 153.639 277.18 153.333 277.545 153.097C277.909 152.862 278.32 152.744 278.778 152.744C278.864 152.744 278.971 152.746 279.101 152.749C279.23 152.753 279.328 152.758 279.394 152.764V153.957C279.354 153.947 279.263 153.933 279.121 153.913C278.981 153.889 278.834 153.878 278.678 153.878C278.307 153.878 277.975 153.956 277.684 154.112C277.395 154.264 277.167 154.476 276.998 154.748C276.832 155.016 276.749 155.323 276.749 155.668V160.5H275.576ZM286.194 154.574L285.14 154.872C285.074 154.696 284.976 154.526 284.847 154.36C284.721 154.191 284.548 154.052 284.33 153.942C284.111 153.833 283.831 153.778 283.489 153.778C283.022 153.778 282.633 153.886 282.321 154.102C282.013 154.314 281.859 154.584 281.859 154.912C281.859 155.204 281.965 155.434 282.177 155.603C282.389 155.772 282.72 155.913 283.171 156.026L284.305 156.304C284.987 156.47 285.496 156.723 285.831 157.065C286.166 157.403 286.333 157.839 286.333 158.372C286.333 158.81 286.207 159.201 285.955 159.545C285.707 159.89 285.359 160.162 284.911 160.361C284.464 160.56 283.943 160.659 283.35 160.659C282.571 160.659 281.927 160.49 281.416 160.152C280.906 159.814 280.583 159.32 280.447 158.67L281.56 158.392C281.666 158.803 281.867 159.111 282.162 159.317C282.46 159.522 282.85 159.625 283.33 159.625C283.877 159.625 284.311 159.509 284.633 159.277C284.958 159.042 285.12 158.76 285.12 158.432C285.12 158.167 285.027 157.945 284.842 157.766C284.656 157.583 284.371 157.447 283.987 157.358L282.714 157.06C282.014 156.894 281.501 156.637 281.173 156.289C280.848 155.938 280.685 155.499 280.685 154.972C280.685 154.541 280.806 154.16 281.048 153.828C281.294 153.497 281.627 153.237 282.048 153.048C282.472 152.859 282.952 152.764 283.489 152.764C284.245 152.764 284.838 152.93 285.269 153.261C285.703 153.593 286.012 154.03 286.194 154.574Z" fill="#171717"/>
    <path d="M364.756 125.409V138.5H361.989V128.036H361.912L358.914 129.915V127.461L362.155 125.409H364.756ZM373.001 138.788C371.901 138.783 370.955 138.513 370.162 137.976C369.374 137.439 368.767 136.661 368.341 135.643C367.919 134.624 367.71 133.399 367.714 131.967C367.714 130.54 367.925 129.323 368.347 128.317C368.773 127.312 369.381 126.547 370.169 126.023C370.961 125.494 371.905 125.23 373.001 125.23C374.096 125.23 375.037 125.494 375.826 126.023C376.618 126.551 377.228 127.318 377.654 128.324C378.08 129.325 378.291 130.54 378.287 131.967C378.287 133.403 378.074 134.631 377.648 135.649C377.226 136.668 376.621 137.445 375.832 137.982C375.044 138.519 374.1 138.788 373.001 138.788ZM373.001 136.493C373.751 136.493 374.349 136.116 374.797 135.362C375.244 134.607 375.466 133.476 375.461 131.967C375.461 130.974 375.359 130.148 375.155 129.487C374.954 128.827 374.669 128.33 374.298 127.998C373.932 127.665 373.499 127.499 373.001 127.499C372.255 127.499 371.658 127.872 371.211 128.618C370.763 129.364 370.537 130.48 370.533 131.967C370.533 132.973 370.633 133.812 370.834 134.486C371.038 135.155 371.326 135.658 371.697 135.994C372.067 136.327 372.502 136.493 373.001 136.493ZM385.393 138.788C384.294 138.783 383.348 138.513 382.555 137.976C381.767 137.439 381.159 136.661 380.733 135.643C380.311 134.624 380.103 133.399 380.107 131.967C380.107 130.54 380.318 129.323 380.74 128.317C381.166 127.312 381.773 126.547 382.561 126.023C383.354 125.494 384.298 125.23 385.393 125.23C386.488 125.23 387.43 125.494 388.218 126.023C389.011 126.551 389.62 127.318 390.047 128.324C390.473 129.325 390.684 130.54 390.679 131.967C390.679 133.403 390.466 134.631 390.04 135.649C389.618 136.668 389.013 137.445 388.225 137.982C387.436 138.519 386.493 138.788 385.393 138.788ZM385.393 136.493C386.143 136.493 386.742 136.116 387.189 135.362C387.637 134.607 387.858 133.476 387.854 131.967C387.854 130.974 387.752 130.148 387.547 129.487C387.347 128.827 387.061 128.33 386.691 127.998C386.324 127.665 385.892 127.499 385.393 127.499C384.647 127.499 384.051 127.872 383.603 128.618C383.156 129.364 382.93 130.48 382.926 131.967C382.926 132.973 383.026 133.812 383.226 134.486C383.431 135.155 383.718 135.658 384.089 135.994C384.46 136.327 384.895 136.493 385.393 136.493ZM392.73 138.5V125.409H395.497V131.181H395.67L400.381 125.409H403.698L398.84 131.271L403.756 138.5H400.445L396.859 133.118L395.497 134.78V138.5H392.73ZM408.184 136.506V127.455H410.472V136.506H408.184ZM404.803 133.124V130.836H413.854V133.124H404.803Z" fill="#081735"/>
    <path d="M345.733 160.5V150.318H346.966V154.852H352.395V150.318H353.628V160.5H352.395V155.946H346.966V160.5H345.733ZM359.039 160.659C358.35 160.659 357.745 160.495 357.225 160.167C356.708 159.839 356.303 159.38 356.012 158.79C355.723 158.2 355.579 157.51 355.579 156.722C355.579 155.926 355.723 155.232 356.012 154.638C356.303 154.045 356.708 153.585 357.225 153.256C357.745 152.928 358.35 152.764 359.039 152.764C359.729 152.764 360.332 152.928 360.849 153.256C361.369 153.585 361.774 154.045 362.062 154.638C362.354 155.232 362.5 155.926 362.5 156.722C362.5 157.51 362.354 158.2 362.062 158.79C361.774 159.38 361.369 159.839 360.849 160.167C360.332 160.495 359.729 160.659 359.039 160.659ZM359.039 159.605C359.563 159.605 359.994 159.471 360.332 159.202C360.67 158.934 360.92 158.581 361.083 158.143C361.245 157.706 361.326 157.232 361.326 156.722C361.326 156.211 361.245 155.736 361.083 155.295C360.92 154.854 360.67 154.498 360.332 154.226C359.994 153.954 359.563 153.818 359.039 153.818C358.516 153.818 358.085 153.954 357.747 154.226C357.409 154.498 357.158 154.854 356.996 155.295C356.834 155.736 356.752 156.211 356.752 156.722C356.752 157.232 356.834 157.706 356.996 158.143C357.158 158.581 357.409 158.934 357.747 159.202C358.085 159.471 358.516 159.605 359.039 159.605ZM369.103 157.378V152.864H370.276V160.5H369.103V159.207H369.024C368.845 159.595 368.566 159.925 368.188 160.197C367.811 160.465 367.333 160.599 366.757 160.599C366.279 160.599 365.855 160.495 365.484 160.286C365.113 160.074 364.821 159.756 364.609 159.332C364.397 158.904 364.291 158.366 364.291 157.716V152.864H365.464V157.636C365.464 158.193 365.62 158.637 365.931 158.969C366.246 159.3 366.647 159.466 367.134 159.466C367.426 159.466 367.723 159.391 368.024 159.242C368.329 159.093 368.584 158.864 368.79 158.556C368.999 158.248 369.103 157.855 369.103 157.378ZM372.425 160.5V152.864H373.559V154.017H373.638C373.778 153.639 374.03 153.333 374.394 153.097C374.759 152.862 375.17 152.744 375.627 152.744C375.713 152.744 375.821 152.746 375.95 152.749C376.08 152.753 376.177 152.758 376.244 152.764V153.957C376.204 153.947 376.113 153.933 375.97 153.913C375.831 153.889 375.683 153.878 375.528 153.878C375.156 153.878 374.825 153.956 374.533 154.112C374.245 154.264 374.016 154.476 373.847 154.748C373.682 155.016 373.599 155.323 373.599 155.668V160.5H372.425ZM383.044 154.574L381.99 154.872C381.923 154.696 381.825 154.526 381.696 154.36C381.57 154.191 381.398 154.052 381.179 153.942C380.96 153.833 380.68 153.778 380.339 153.778C379.872 153.778 379.482 153.886 379.171 154.102C378.862 154.314 378.708 154.584 378.708 154.912C378.708 155.204 378.814 155.434 379.026 155.603C379.239 155.772 379.57 155.913 380.021 156.026L381.154 156.304C381.837 156.47 382.346 156.723 382.681 157.065C383.015 157.403 383.183 157.839 383.183 158.372C383.183 158.81 383.057 159.201 382.805 159.545C382.556 159.89 382.208 160.162 381.761 160.361C381.313 160.56 380.793 160.659 380.2 160.659C379.421 160.659 378.776 160.49 378.266 160.152C377.755 159.814 377.432 159.32 377.296 158.67L378.41 158.392C378.516 158.803 378.717 159.111 379.012 159.317C379.31 159.522 379.699 159.625 380.18 159.625C380.727 159.625 381.161 159.509 381.482 159.277C381.807 159.042 381.97 158.76 381.97 158.432C381.97 158.167 381.877 157.945 381.691 157.766C381.506 157.583 381.221 157.447 380.836 157.358L379.563 157.06C378.864 156.894 378.35 156.637 378.022 156.289C377.697 155.938 377.535 155.499 377.535 154.972C377.535 154.541 377.656 154.16 377.898 153.828C378.143 153.497 378.476 153.237 378.897 153.048C379.321 152.859 379.802 152.764 380.339 152.764C381.095 152.764 381.688 152.93 382.119 153.261C382.553 153.593 382.861 154.03 383.044 154.574ZM394.614 152.864C394.554 152.36 394.312 151.969 393.888 151.69C393.464 151.412 392.943 151.273 392.327 151.273C391.876 151.273 391.482 151.346 391.143 151.491C390.809 151.637 390.547 151.838 390.358 152.093C390.172 152.348 390.08 152.638 390.08 152.963C390.08 153.235 390.144 153.469 390.273 153.664C390.406 153.856 390.575 154.017 390.781 154.146C390.986 154.272 391.201 154.377 391.427 154.46C391.652 154.539 391.859 154.604 392.048 154.653L393.082 154.932C393.348 155.001 393.643 155.098 393.967 155.22C394.295 155.343 394.609 155.51 394.907 155.722C395.209 155.931 395.457 156.2 395.653 156.528C395.848 156.856 395.946 157.259 395.946 157.736C395.946 158.286 395.802 158.783 395.513 159.227C395.228 159.671 394.811 160.024 394.261 160.286C393.714 160.548 393.049 160.679 392.267 160.679C391.538 160.679 390.906 160.561 390.373 160.326C389.843 160.091 389.425 159.763 389.12 159.342C388.818 158.921 388.648 158.432 388.608 157.875H389.881C389.914 158.259 390.043 158.578 390.268 158.83C390.497 159.078 390.786 159.264 391.134 159.386C391.485 159.506 391.863 159.565 392.267 159.565C392.738 159.565 393.16 159.489 393.535 159.337C393.909 159.181 394.206 158.965 394.425 158.69C394.643 158.412 394.753 158.087 394.753 157.716C394.753 157.378 394.658 157.103 394.469 156.891C394.281 156.679 394.032 156.506 393.724 156.374C393.415 156.241 393.082 156.125 392.724 156.026L391.472 155.668C390.676 155.439 390.046 155.112 389.582 154.688C389.118 154.264 388.886 153.709 388.886 153.023C388.886 152.453 389.04 151.955 389.349 151.531C389.66 151.104 390.078 150.772 390.602 150.537C391.129 150.298 391.717 150.179 392.366 150.179C393.023 150.179 393.606 150.297 394.116 150.532C394.627 150.764 395.031 151.082 395.33 151.487C395.631 151.891 395.79 152.35 395.807 152.864H394.614ZM400.061 160.679C399.577 160.679 399.138 160.588 398.744 160.406C398.349 160.22 398.036 159.953 397.804 159.605C397.572 159.254 397.456 158.83 397.456 158.332C397.456 157.895 397.542 157.54 397.715 157.268C397.887 156.993 398.117 156.778 398.406 156.622C398.694 156.466 399.012 156.35 399.36 156.274C399.712 156.195 400.065 156.132 400.419 156.085C400.883 156.026 401.259 155.981 401.548 155.951C401.839 155.918 402.052 155.863 402.184 155.787C402.32 155.711 402.388 155.578 402.388 155.389V155.349C402.388 154.859 402.254 154.478 401.985 154.206C401.72 153.934 401.317 153.798 400.777 153.798C400.217 153.798 399.778 153.921 399.46 154.166C399.142 154.411 398.918 154.673 398.789 154.952L397.675 154.554C397.874 154.09 398.139 153.729 398.47 153.47C398.805 153.208 399.17 153.026 399.564 152.923C399.962 152.817 400.353 152.764 400.737 152.764C400.983 152.764 401.264 152.794 401.583 152.854C401.904 152.91 402.214 153.028 402.512 153.207C402.814 153.386 403.064 153.656 403.263 154.017C403.462 154.378 403.561 154.862 403.561 155.469V160.5H402.388V159.466H402.328C402.249 159.632 402.116 159.809 401.931 159.998C401.745 160.187 401.498 160.348 401.19 160.48C400.882 160.613 400.505 160.679 400.061 160.679ZM400.24 159.625C400.704 159.625 401.095 159.534 401.414 159.352C401.735 159.169 401.977 158.934 402.139 158.646C402.305 158.357 402.388 158.054 402.388 157.736V156.662C402.338 156.722 402.229 156.776 402.06 156.826C401.894 156.872 401.702 156.914 401.483 156.95C401.268 156.983 401.057 157.013 400.852 157.04C400.65 157.063 400.485 157.083 400.36 157.099C400.055 157.139 399.77 157.204 399.504 157.293C399.243 157.379 399.03 157.51 398.868 157.686C398.709 157.858 398.629 158.094 398.629 158.392C398.629 158.8 398.78 159.108 399.082 159.317C399.387 159.522 399.773 159.625 400.24 159.625ZM411.674 152.864L408.85 160.5H407.657L404.833 152.864H406.105L408.213 158.949H408.293L410.401 152.864H411.674ZM416.151 160.659C415.415 160.659 414.78 160.497 414.246 160.172C413.716 159.844 413.307 159.386 413.018 158.8C412.733 158.21 412.591 157.524 412.591 156.741C412.591 155.959 412.733 155.27 413.018 154.673C413.307 154.073 413.708 153.606 414.222 153.271C414.739 152.933 415.342 152.764 416.031 152.764C416.429 152.764 416.822 152.83 417.21 152.963C417.597 153.096 417.95 153.311 418.268 153.609C418.587 153.904 418.84 154.295 419.029 154.783C419.218 155.27 419.312 155.87 419.312 156.582V157.08H413.426V156.065H418.119C418.119 155.634 418.033 155.25 417.861 154.912C417.692 154.574 417.45 154.307 417.135 154.112C416.823 153.916 416.455 153.818 416.031 153.818C415.564 153.818 415.16 153.934 414.818 154.166C414.48 154.395 414.22 154.693 414.038 155.061C413.855 155.429 413.764 155.823 413.764 156.244V156.92C413.764 157.497 413.864 157.986 414.062 158.387C414.265 158.785 414.545 159.088 414.903 159.297C415.261 159.502 415.677 159.605 416.151 159.605C416.459 159.605 416.737 159.562 416.986 159.476C417.238 159.386 417.455 159.254 417.637 159.078C417.819 158.899 417.96 158.677 418.06 158.412L419.193 158.73C419.074 159.115 418.873 159.453 418.592 159.744C418.31 160.033 417.962 160.258 417.548 160.42C417.133 160.58 416.668 160.659 416.151 160.659ZM423.981 160.659C423.344 160.659 422.783 160.498 422.295 160.177C421.808 159.852 421.427 159.395 421.152 158.805C420.877 158.211 420.739 157.51 420.739 156.702C420.739 155.9 420.877 155.204 421.152 154.614C421.427 154.024 421.81 153.568 422.3 153.246C422.791 152.925 423.358 152.764 424.001 152.764C424.498 152.764 424.891 152.847 425.179 153.013C425.471 153.175 425.693 153.361 425.845 153.57C426.001 153.775 426.122 153.944 426.208 154.077H426.308V150.318H427.481V160.5H426.347V159.327H426.208C426.122 159.466 425.999 159.642 425.84 159.854C425.681 160.062 425.454 160.25 425.159 160.415C424.864 160.578 424.471 160.659 423.981 160.659ZM424.14 159.605C424.611 159.605 425.008 159.482 425.333 159.237C425.658 158.989 425.905 158.646 426.074 158.208C426.243 157.767 426.327 157.259 426.327 156.682C426.327 156.112 426.245 155.613 426.079 155.185C425.913 154.754 425.668 154.42 425.343 154.181C425.018 153.939 424.617 153.818 424.14 153.818C423.643 153.818 423.228 153.946 422.897 154.201C422.569 154.453 422.322 154.796 422.156 155.23C421.994 155.661 421.913 156.145 421.913 156.682C421.913 157.225 421.996 157.719 422.161 158.163C422.33 158.604 422.579 158.955 422.907 159.217C423.238 159.476 423.649 159.605 424.14 159.605Z" fill="#171717"/>
    <g filter="url(#filter1_d_1_7225)">
    <rect x="228" y="182" width="265" height="164" rx="24" fill="white"/>
    </g>
    <ellipse cx="287.833" cy="225.589" rx="28" ry="28.3832" fill="#9D90FA" fill-opacity="0.25"/>
    <path d="M297.434 224.755H287.656V214.843C287.656 214.721 287.557 214.621 287.437 214.621H286.726C285.291 214.62 283.87 214.905 282.545 215.462C281.219 216.019 280.015 216.835 279.001 217.864C278.003 218.873 277.208 220.068 276.661 221.384C276.092 222.751 275.802 224.201 275.802 225.697C275.802 227.194 276.092 228.641 276.661 230.008C277.21 231.324 277.998 232.51 279.001 233.528C280.005 234.545 281.172 235.343 282.474 235.9C283.82 236.479 285.267 236.776 286.729 236.773C288.163 236.775 289.584 236.489 290.91 235.933C292.235 235.376 293.44 234.56 294.453 233.53C295.457 232.513 296.244 231.33 296.794 230.01C297.365 228.646 297.658 227.179 297.655 225.697V224.977C297.652 224.855 297.554 224.755 297.434 224.755ZM299.837 223.217L299.766 222.435C299.534 219.885 298.418 217.479 296.619 215.663C294.821 213.843 292.453 212.716 289.922 212.479L289.148 212.407C289.02 212.396 288.911 212.495 288.911 212.626V223.261C288.911 223.383 289.009 223.483 289.129 223.483L299.618 223.455C299.747 223.452 299.848 223.344 299.837 223.217Z" fill="#9D90FA"/>
    <path d="M406.833 216.657L410.833 212.657L414.833 216.657" stroke="#0049C6" stroke-width="2" stroke-linecap="round" stroke-linejoin="round"/>
    <path d="M410.833 212.657V222.986" stroke="#0049C6" stroke-width="2" stroke-linecap="round" stroke-linejoin="round"/>
    <path d="M428.088 213.174V223.356H425.936V215.217H425.876L423.544 216.679V214.77L426.065 213.174H428.088ZM430.354 221.566V219.871L434.605 213.174H436.066V215.521H435.201L432.522 219.761V219.841H438.562V221.566H430.354ZM435.241 223.356V221.049L435.281 220.298V213.174H437.299V223.356H435.241ZM445.57 221.447V220.91C445.57 220.502 445.656 220.128 445.828 219.786C446.004 219.442 446.257 219.166 446.589 218.961C446.924 218.752 447.331 218.648 447.812 218.648C448.299 218.648 448.708 218.75 449.04 218.956C449.375 219.161 449.626 219.437 449.795 219.781C449.968 220.123 450.054 220.499 450.054 220.91V221.447C450.054 221.854 449.968 222.231 449.795 222.575C449.623 222.917 449.37 223.19 449.035 223.396C448.7 223.604 448.292 223.709 447.812 223.709C447.325 223.709 446.915 223.604 446.584 223.396C446.252 223.19 446 222.917 445.828 222.575C445.656 222.231 445.57 221.854 445.57 221.447ZM447.016 220.91V221.447C447.016 221.682 447.073 221.904 447.185 222.113C447.301 222.322 447.51 222.426 447.812 222.426C448.113 222.426 448.319 222.323 448.428 222.118C448.541 221.912 448.597 221.689 448.597 221.447V220.91C448.597 220.668 448.544 220.442 448.438 220.234C448.332 220.025 448.123 219.92 447.812 219.92C447.513 219.92 447.306 220.025 447.19 220.234C447.074 220.442 447.016 220.668 447.016 220.91ZM440.344 215.62V215.083C440.344 214.672 440.432 214.296 440.608 213.955C440.784 213.61 441.037 213.335 441.369 213.129C441.703 212.924 442.108 212.821 442.582 212.821C443.072 212.821 443.483 212.924 443.815 213.129C444.146 213.335 444.398 213.61 444.57 213.955C444.743 214.296 444.829 214.672 444.829 215.083V215.62C444.829 216.031 444.741 216.407 444.565 216.749C444.393 217.09 444.139 217.363 443.805 217.569C443.473 217.771 443.066 217.872 442.582 217.872C442.098 217.872 441.688 217.769 441.354 217.564C441.022 217.355 440.77 217.082 440.598 216.744C440.429 216.402 440.344 216.028 440.344 215.62ZM441.801 215.083V215.62C441.801 215.862 441.857 216.086 441.97 216.291C442.086 216.497 442.29 216.599 442.582 216.599C442.887 216.599 443.094 216.497 443.203 216.291C443.316 216.086 443.372 215.862 443.372 215.62V215.083C443.372 214.841 443.319 214.616 443.213 214.407C443.107 214.198 442.897 214.094 442.582 214.094C442.287 214.094 442.083 214.2 441.97 214.412C441.857 214.624 441.801 214.848 441.801 215.083ZM441.001 223.356L448.001 213.174H449.303L442.303 223.356H441.001Z" fill="#0049C6"/>
    <path d="M406.413 233.854V232.916H412.958V233.854H410.214V241.643H409.157V233.854H406.413ZM415.459 237.706V241.643H414.453V232.916H415.459V236.121H415.544C415.697 235.783 415.927 235.514 416.234 235.315C416.544 235.113 416.956 235.013 417.47 235.013C417.916 235.013 418.307 235.102 418.642 235.281C418.977 235.457 419.237 235.729 419.422 236.095C419.609 236.459 419.703 236.922 419.703 237.484V241.643H418.697V237.552C418.697 237.033 418.562 236.631 418.292 236.346C418.025 236.06 417.655 235.916 417.18 235.916C416.851 235.916 416.555 235.986 416.294 236.125C416.035 236.264 415.831 236.467 415.68 236.734C415.532 237.001 415.459 237.325 415.459 237.706ZM421.543 241.643V235.098H422.548V241.643H421.543ZM422.054 234.007C421.858 234.007 421.689 233.94 421.547 233.807C421.408 233.673 421.338 233.513 421.338 233.325C421.338 233.138 421.408 232.977 421.547 232.844C421.689 232.71 421.858 232.643 422.054 232.643C422.25 232.643 422.418 232.71 422.557 232.844C422.699 232.977 422.77 233.138 422.77 233.325C422.77 233.513 422.699 233.673 422.557 233.807C422.418 233.94 422.25 234.007 422.054 234.007ZM429.027 236.564L428.123 236.819C428.067 236.669 427.983 236.523 427.872 236.381C427.764 236.236 427.616 236.116 427.429 236.023C427.241 235.929 427.001 235.882 426.709 235.882C426.308 235.882 425.974 235.974 425.707 236.159C425.443 236.341 425.311 236.572 425.311 236.854C425.311 237.104 425.402 237.301 425.584 237.446C425.765 237.591 426.05 237.711 426.436 237.808L427.407 238.047C427.993 238.189 428.429 238.406 428.716 238.699C429.003 238.988 429.146 239.362 429.146 239.819C429.146 240.194 429.038 240.53 428.822 240.825C428.609 241.121 428.311 241.354 427.927 241.524C427.544 241.694 427.098 241.78 426.589 241.78C425.922 241.78 425.369 241.635 424.932 241.345C424.494 241.055 424.217 240.632 424.101 240.075L425.055 239.836C425.146 240.189 425.318 240.453 425.571 240.629C425.827 240.805 426.16 240.893 426.572 240.893C427.041 240.893 427.413 240.794 427.689 240.595C427.967 240.393 428.106 240.152 428.106 239.871C428.106 239.643 428.027 239.453 427.868 239.3C427.709 239.143 427.464 239.027 427.135 238.95L426.044 238.694C425.444 238.552 425.004 238.332 424.723 238.034C424.444 237.733 424.305 237.356 424.305 236.905C424.305 236.535 424.409 236.209 424.616 235.925C424.827 235.64 425.112 235.417 425.473 235.256C425.836 235.094 426.248 235.013 426.709 235.013C427.356 235.013 427.865 235.155 428.234 235.439C428.606 235.723 428.871 236.098 429.027 236.564ZM435.518 241.643L433.524 235.098H434.58L435.995 240.109H436.063L437.461 235.098H438.535L439.916 240.092H439.984L441.399 235.098H442.455L440.461 241.643H439.472L438.041 236.615H437.938L436.507 241.643H435.518ZM446.307 241.78C445.676 241.78 445.132 241.64 444.675 241.362C444.22 241.081 443.869 240.689 443.622 240.186C443.378 239.68 443.255 239.092 443.255 238.422C443.255 237.751 443.378 237.16 443.622 236.649C443.869 236.135 444.213 235.734 444.653 235.447C445.096 235.158 445.613 235.013 446.204 235.013C446.545 235.013 446.882 235.069 447.214 235.183C447.547 235.297 447.849 235.481 448.122 235.737C448.395 235.99 448.612 236.325 448.774 236.743C448.936 237.16 449.017 237.675 449.017 238.285V238.711H443.971V237.842H447.994C447.994 237.473 447.92 237.143 447.773 236.854C447.628 236.564 447.42 236.335 447.15 236.167C446.883 236 446.568 235.916 446.204 235.916C445.804 235.916 445.457 236.015 445.165 236.214C444.875 236.41 444.652 236.666 444.496 236.981C444.339 237.297 444.261 237.635 444.261 237.996V238.575C444.261 239.069 444.346 239.488 444.517 239.832C444.69 240.173 444.93 240.433 445.237 240.612C445.544 240.788 445.9 240.876 446.307 240.876C446.571 240.876 446.809 240.839 447.023 240.765C447.238 240.689 447.425 240.575 447.581 240.425C447.737 240.271 447.858 240.081 447.943 239.854L448.915 240.126C448.812 240.456 448.64 240.746 448.399 240.996C448.157 241.243 447.859 241.436 447.504 241.575C447.149 241.711 446.75 241.78 446.307 241.78ZM453.291 241.78C452.66 241.78 452.116 241.64 451.659 241.362C451.204 241.081 450.853 240.689 450.606 240.186C450.362 239.68 450.24 239.092 450.24 238.422C450.24 237.751 450.362 237.16 450.606 236.649C450.853 236.135 451.197 235.734 451.638 235.447C452.081 235.158 452.598 235.013 453.189 235.013C453.53 235.013 453.866 235.069 454.199 235.183C454.531 235.297 454.834 235.481 455.106 235.737C455.379 235.99 455.596 236.325 455.758 236.743C455.92 237.16 456.001 237.675 456.001 238.285V238.711H450.956V237.842H454.978C454.978 237.473 454.905 237.143 454.757 236.854C454.612 236.564 454.405 236.335 454.135 236.167C453.868 236 453.552 235.916 453.189 235.916C452.788 235.916 452.442 236.015 452.149 236.214C451.859 236.41 451.636 236.666 451.48 236.981C451.324 237.297 451.246 237.635 451.246 237.996V238.575C451.246 239.069 451.331 239.488 451.501 239.832C451.675 240.173 451.915 240.433 452.221 240.612C452.528 240.788 452.885 240.876 453.291 240.876C453.555 240.876 453.794 240.839 454.007 240.765C454.223 240.689 454.409 240.575 454.565 240.425C454.721 240.271 454.842 240.081 454.927 239.854L455.899 240.126C455.797 240.456 455.625 240.746 455.383 240.996C455.142 241.243 454.844 241.436 454.488 241.575C454.133 241.711 453.734 241.78 453.291 241.78ZM458.469 239.257L458.452 238.013H458.656L461.52 235.098H462.764L459.713 238.183H459.628L458.469 239.257ZM457.531 241.643V232.916H458.537V241.643H457.531ZM461.69 241.643L459.133 238.405L459.849 237.706L462.969 241.643H461.69Z" fill="#171717"/>
    <path d="M264.871 275.009V285.191H262.718V275.009H264.871ZM272.956 279.732L271.017 279.851C270.984 279.685 270.913 279.536 270.803 279.404C270.694 279.268 270.55 279.16 270.371 279.081C270.195 278.998 269.985 278.956 269.739 278.956C269.411 278.956 269.134 279.026 268.909 279.165C268.684 279.301 268.571 279.483 268.571 279.712C268.571 279.894 268.644 280.048 268.79 280.174C268.936 280.3 269.186 280.401 269.54 280.478L270.923 280.756C271.665 280.908 272.218 281.154 272.583 281.492C272.948 281.83 273.13 282.274 273.13 282.824C273.13 283.325 272.982 283.764 272.687 284.142C272.396 284.52 271.995 284.814 271.484 285.027C270.977 285.235 270.392 285.34 269.729 285.34C268.718 285.34 267.913 285.129 267.313 284.708C266.717 284.284 266.367 283.707 266.264 282.978L268.347 282.869C268.41 283.177 268.563 283.413 268.805 283.575C269.047 283.734 269.357 283.814 269.734 283.814C270.106 283.814 270.404 283.742 270.629 283.6C270.858 283.454 270.974 283.267 270.977 283.038C270.974 282.846 270.893 282.688 270.734 282.566C270.575 282.44 270.329 282.344 269.998 282.277L268.675 282.014C267.93 281.865 267.375 281.606 267.01 281.238C266.649 280.87 266.468 280.401 266.468 279.831C266.468 279.341 266.601 278.918 266.866 278.564C267.134 278.209 267.51 277.935 267.994 277.743C268.482 277.551 269.052 277.455 269.705 277.455C270.669 277.455 271.428 277.659 271.982 278.066C272.538 278.474 272.863 279.029 272.956 279.732ZM280.817 279.732L278.878 279.851C278.845 279.685 278.774 279.536 278.665 279.404C278.555 279.268 278.411 279.16 278.232 279.081C278.056 278.998 277.846 278.956 277.601 278.956C277.273 278.956 276.996 279.026 276.77 279.165C276.545 279.301 276.432 279.483 276.432 279.712C276.432 279.894 276.505 280.048 276.651 280.174C276.797 280.3 277.047 280.401 277.402 280.478L278.784 280.756C279.526 280.908 280.08 281.154 280.444 281.492C280.809 281.83 280.991 282.274 280.991 282.824C280.991 283.325 280.844 283.764 280.549 284.142C280.257 284.52 279.856 284.814 279.346 285.027C278.839 285.235 278.254 285.34 277.591 285.34C276.58 285.34 275.774 285.129 275.175 284.708C274.578 284.284 274.228 283.707 274.126 282.978L276.209 282.869C276.272 283.177 276.424 283.413 276.666 283.575C276.908 283.734 277.218 283.814 277.596 283.814C277.967 283.814 278.265 283.742 278.491 283.6C278.719 283.454 278.835 283.267 278.839 283.038C278.835 282.846 278.754 282.688 278.595 282.566C278.436 282.44 278.191 282.344 277.859 282.277L276.537 282.014C275.791 281.865 275.236 281.606 274.871 281.238C274.51 280.87 274.329 280.401 274.329 279.831C274.329 279.341 274.462 278.918 274.727 278.564C274.996 278.209 275.372 277.935 275.856 277.743C276.343 277.551 276.913 277.455 277.566 277.455C278.53 277.455 279.289 277.659 279.843 278.066C280.4 278.474 280.724 279.029 280.817 279.732ZM287.222 281.939V277.554H289.34V285.191H287.306V283.804H287.227C287.055 284.251 286.768 284.611 286.367 284.882C285.969 285.154 285.484 285.29 284.91 285.29C284.4 285.29 283.951 285.174 283.563 284.942C283.175 284.71 282.872 284.38 282.653 283.953C282.438 283.525 282.328 283.013 282.325 282.417V277.554H284.443V282.039C284.446 282.489 284.567 282.846 284.806 283.108C285.044 283.369 285.364 283.5 285.765 283.5C286.02 283.5 286.259 283.442 286.481 283.326C286.703 283.207 286.882 283.031 287.018 282.799C287.157 282.567 287.225 282.281 287.222 281.939ZM294.514 285.34C293.728 285.34 293.052 285.181 292.486 284.863C291.922 284.541 291.488 284.087 291.183 283.5C290.878 282.91 290.726 282.213 290.726 281.407C290.726 280.622 290.878 279.932 291.183 279.339C291.488 278.746 291.917 278.283 292.471 277.952C293.027 277.621 293.68 277.455 294.429 277.455C294.933 277.455 295.402 277.536 295.836 277.698C296.274 277.858 296.655 278.098 296.98 278.419C297.308 278.741 297.563 279.145 297.746 279.632C297.928 280.116 298.019 280.683 298.019 281.333V281.914H291.571V280.602H296.025C296.025 280.297 295.959 280.027 295.827 279.792C295.694 279.556 295.51 279.372 295.275 279.24C295.043 279.104 294.773 279.036 294.464 279.036C294.143 279.036 293.858 279.11 293.609 279.26C293.364 279.405 293.172 279.603 293.032 279.851C292.893 280.096 292.822 280.37 292.819 280.671V281.919C292.819 282.297 292.888 282.624 293.027 282.899C293.17 283.174 293.371 283.386 293.629 283.535C293.888 283.684 294.194 283.759 294.549 283.759C294.784 283.759 295 283.726 295.195 283.659C295.391 283.593 295.558 283.494 295.697 283.361C295.836 283.229 295.943 283.066 296.015 282.874L297.974 283.003C297.875 283.474 297.671 283.885 297.363 284.236C297.058 284.584 296.663 284.856 296.179 285.051C295.699 285.244 295.144 285.34 294.514 285.34ZM305.755 279.732L303.816 279.851C303.783 279.685 303.711 279.536 303.602 279.404C303.493 279.268 303.349 279.16 303.17 279.081C302.994 278.998 302.783 278.956 302.538 278.956C302.21 278.956 301.933 279.026 301.708 279.165C301.483 279.301 301.37 279.483 301.37 279.712C301.37 279.894 301.443 280.048 301.589 280.174C301.734 280.3 301.985 280.401 302.339 280.478L303.721 280.756C304.464 280.908 305.017 281.154 305.382 281.492C305.746 281.83 305.929 282.274 305.929 282.824C305.929 283.325 305.781 283.764 305.486 284.142C305.195 284.52 304.794 284.814 304.283 285.027C303.776 285.235 303.191 285.34 302.528 285.34C301.517 285.34 300.712 285.129 300.112 284.708C299.515 284.284 299.166 283.707 299.063 282.978L301.146 282.869C301.209 283.177 301.362 283.413 301.603 283.575C301.845 283.734 302.155 283.814 302.533 283.814C302.904 283.814 303.203 283.742 303.428 283.6C303.657 283.454 303.773 283.267 303.776 283.038C303.773 282.846 303.692 282.688 303.532 282.566C303.373 282.44 303.128 282.344 302.797 282.277L301.474 282.014C300.728 281.865 300.173 281.606 299.809 281.238C299.447 280.87 299.267 280.401 299.267 279.831C299.267 279.341 299.399 278.918 299.665 278.564C299.933 278.209 300.309 277.935 300.793 277.743C301.28 277.551 301.85 277.455 302.503 277.455C303.468 277.455 304.227 277.659 304.78 278.066C305.337 278.474 305.662 279.029 305.755 279.732ZM310.542 285.191V275.009H317.284V276.784H312.695V279.21H316.836V280.985H312.695V285.191H310.542ZM318.692 285.191V277.554H320.81V285.191H318.692ZM319.756 276.57C319.441 276.57 319.171 276.466 318.946 276.257C318.724 276.045 318.613 275.791 318.613 275.496C318.613 275.204 318.724 274.954 318.946 274.745C319.171 274.533 319.441 274.427 319.756 274.427C320.071 274.427 320.339 274.533 320.561 274.745C320.787 274.954 320.899 275.204 320.899 275.496C320.899 275.791 320.787 276.045 320.561 276.257C320.339 276.466 320.071 276.57 319.756 276.57ZM324.276 277.554L325.678 280.224L327.115 277.554H329.288L327.075 281.372L329.347 285.191H327.185L325.678 282.551L324.197 285.191H322.009L324.276 281.372L322.089 277.554H324.276ZM333.752 285.34C332.967 285.34 332.291 285.181 331.724 284.863C331.16 284.541 330.726 284.087 330.421 283.5C330.116 282.91 329.964 282.213 329.964 281.407C329.964 280.622 330.116 279.932 330.421 279.339C330.726 278.746 331.155 278.283 331.709 277.952C332.266 277.621 332.919 277.455 333.668 277.455C334.172 277.455 334.641 277.536 335.075 277.698C335.512 277.858 335.893 278.098 336.218 278.419C336.546 278.741 336.802 279.145 336.984 279.632C337.166 280.116 337.257 280.683 337.257 281.333V281.914H330.809V280.602H335.264C335.264 280.297 335.197 280.027 335.065 279.792C334.932 279.556 334.748 279.372 334.513 279.24C334.281 279.104 334.011 279.036 333.703 279.036C333.381 279.036 333.096 279.11 332.847 279.26C332.602 279.405 332.41 279.603 332.271 279.851C332.132 280.096 332.06 280.37 332.057 280.671V281.919C332.057 282.297 332.127 282.624 332.266 282.899C332.408 283.174 332.609 283.386 332.867 283.535C333.126 283.684 333.432 283.759 333.787 283.759C334.022 283.759 334.238 283.726 334.433 283.659C334.629 283.593 334.796 283.494 334.936 283.361C335.075 283.229 335.181 283.066 335.254 282.874L337.213 283.003C337.113 283.474 336.909 283.885 336.601 284.236C336.296 284.584 335.902 284.856 335.418 285.051C334.937 285.244 334.382 285.34 333.752 285.34ZM341.453 285.315C340.873 285.315 340.348 285.166 339.877 284.868C339.41 284.566 339.039 284.123 338.764 283.54C338.492 282.953 338.356 282.234 338.356 281.382C338.356 280.507 338.497 279.78 338.779 279.2C339.06 278.617 339.435 278.181 339.902 277.892C340.373 277.601 340.888 277.455 341.448 277.455C341.876 277.455 342.232 277.528 342.517 277.674C342.806 277.816 343.038 277.995 343.213 278.211C343.392 278.423 343.528 278.631 343.621 278.837H343.686V275.009H345.798V285.191H343.71V283.968H343.621C343.521 284.18 343.381 284.39 343.198 284.599C343.019 284.805 342.786 284.975 342.497 285.111C342.212 285.247 341.864 285.315 341.453 285.315ZM342.124 283.63C342.466 283.63 342.754 283.537 342.99 283.351C343.228 283.162 343.41 282.899 343.536 282.561C343.666 282.223 343.73 281.827 343.73 281.372C343.73 280.918 343.667 280.524 343.541 280.189C343.415 279.854 343.233 279.596 342.994 279.414C342.756 279.231 342.466 279.14 342.124 279.14C341.776 279.14 341.483 279.235 341.244 279.424C341.006 279.613 340.825 279.874 340.703 280.209C340.58 280.544 340.519 280.932 340.519 281.372C340.519 281.817 340.58 282.209 340.703 282.551C340.829 282.889 341.009 283.154 341.244 283.346C341.483 283.535 341.776 283.63 342.124 283.63Z" fill="#171717"/>
    <path d="M272.22 326.892C270.614 326.892 269.182 326.597 267.924 326.006C266.674 325.415 265.682 324.6 264.947 323.562C264.212 322.525 263.829 321.335 263.799 319.994H268.572C268.625 320.896 269.004 321.627 269.708 322.187C270.413 322.748 271.25 323.028 272.22 323.028C272.992 323.028 273.674 322.858 274.265 322.517C274.864 322.169 275.329 321.687 275.663 321.074C276.004 320.453 276.174 319.741 276.174 318.937C276.174 318.119 276 317.4 275.651 316.778C275.311 316.157 274.837 315.672 274.231 315.324C273.625 314.975 272.932 314.797 272.151 314.79C271.47 314.79 270.807 314.93 270.163 315.21C269.526 315.491 269.03 315.873 268.674 316.358L264.299 315.574L265.401 303.301H279.629V307.324H269.458L268.856 313.153H268.992C269.401 312.578 270.019 312.1 270.845 311.722C271.67 311.343 272.595 311.153 273.617 311.153C275.019 311.153 276.269 311.483 277.367 312.142C278.466 312.801 279.333 313.706 279.97 314.858C280.606 316.002 280.92 317.32 280.913 318.812C280.92 320.381 280.557 321.775 279.822 322.994C279.095 324.206 278.076 325.161 276.765 325.858C275.462 326.547 273.947 326.892 272.22 326.892ZM293.47 327.085C291.515 327.078 289.833 326.597 288.424 325.642C287.023 324.687 285.943 323.305 285.186 321.494C284.436 319.684 284.064 317.506 284.072 314.96C284.072 312.422 284.447 310.259 285.197 308.472C285.954 306.684 287.034 305.324 288.436 304.392C289.845 303.453 291.523 302.983 293.47 302.983C295.417 302.983 297.091 303.453 298.492 304.392C299.901 305.331 300.985 306.695 301.742 308.483C302.5 310.263 302.875 312.422 302.867 314.96C302.867 317.513 302.489 319.695 301.731 321.506C300.981 323.316 299.905 324.699 298.504 325.653C297.102 326.608 295.424 327.085 293.47 327.085ZM293.47 323.006C294.803 323.006 295.867 322.335 296.663 320.994C297.458 319.653 297.852 317.642 297.845 314.96C297.845 313.195 297.663 311.725 297.299 310.551C296.943 309.377 296.436 308.494 295.776 307.903C295.125 307.312 294.356 307.017 293.47 307.017C292.144 307.017 291.083 307.68 290.288 309.006C289.492 310.331 289.091 312.316 289.083 314.96C289.083 316.748 289.261 318.241 289.617 319.437C289.981 320.627 290.492 321.521 291.151 322.119C291.811 322.71 292.583 323.006 293.47 323.006ZM315.501 327.085C313.546 327.078 311.865 326.597 310.455 325.642C309.054 324.687 307.974 323.305 307.217 321.494C306.467 319.684 306.096 317.506 306.103 314.96C306.103 312.422 306.478 310.259 307.228 308.472C307.986 306.684 309.065 305.324 310.467 304.392C311.876 303.453 313.554 302.983 315.501 302.983C317.448 302.983 319.122 303.453 320.524 304.392C321.933 305.331 323.016 306.695 323.774 308.483C324.531 310.263 324.906 312.422 324.899 314.96C324.899 317.513 324.52 319.695 323.762 321.506C323.012 323.316 321.936 324.699 320.535 325.653C319.133 326.608 317.455 327.085 315.501 327.085ZM315.501 323.006C316.834 323.006 317.899 322.335 318.694 320.994C319.49 319.653 319.883 317.642 319.876 314.96C319.876 313.195 319.694 311.725 319.33 310.551C318.974 309.377 318.467 308.494 317.808 307.903C317.156 307.312 316.387 307.017 315.501 307.017C314.175 307.017 313.115 307.68 312.319 309.006C311.524 310.331 311.122 312.316 311.115 314.96C311.115 316.748 311.293 318.241 311.649 319.437C312.012 320.627 312.524 321.521 313.183 322.119C313.842 322.71 314.615 323.006 315.501 323.006ZM328.543 326.574V303.301H333.464V313.562H333.771L342.146 303.301H348.043L339.407 313.722L348.146 326.574H342.259L335.884 317.006L333.464 319.96V326.574H328.543ZM356.018 323.028V306.937H360.086V323.028H356.018ZM350.007 317.017V312.949H366.097V317.017H350.007Z" fill="#081735"/>
    <defs>
    <filter id="filter0_d_1_7225" x="0" y="0" width="495" height="218" filterUnits="userSpaceOnUse" color-interpolation-filters="sRGB">
    <feFlood flood-opacity="0" result="BackgroundImageFix"/>
    <feColorMatrix in="SourceAlpha" type="matrix" values="0 0 0 0 0 0 0 0 0 0 0 0 0 0 0 0 0 0 127 0" result="hardAlpha"/>
    <feOffset/>
    <feGaussianBlur stdDeviation="12"/>
    <feComposite in2="hardAlpha" operator="out"/>
    <feColorMatrix type="matrix" values="0 0 0 0 0.0321181 0 0 0 0 0.0908565 0 0 0 0 0.208333 0 0 0 0.16 0"/>
    <feBlend mode="normal" in2="BackgroundImageFix" result="effect1_dropShadow_1_7225"/>
    <feBlend mode="normal" in="SourceGraphic" in2="effect1_dropShadow_1_7225" result="shape"/>
    </filter>
    <filter id="filter1_d_1_7225" x="204" y="158" width="313" height="212" filterUnits="userSpaceOnUse" color-interpolation-filters="sRGB">
    <feFlood flood-opacity="0" result="BackgroundImageFix"/>
    <feColorMatrix in="SourceAlpha" type="matrix" values="0 0 0 0 0 0 0 0 0 0 0 0 0 0 0 0 0 0 127 0" result="hardAlpha"/>
    <feOffset/>
    <feGaussianBlur stdDeviation="12"/>
    <feComposite in2="hardAlpha" operator="out"/>
    <feColorMatrix type="matrix" values="0 0 0 0 0.0321181 0 0 0 0 0.0908565 0 0 0 0 0.208333 0 0 0 0.16 0"/>
    <feBlend mode="normal" in2="BackgroundImageFix" result="effect1_dropShadow_1_7225"/>
    <feBlend mode="normal" in="SourceGraphic" in2="effect1_dropShadow_1_7225" result="shape"/>
    </filter>
    </defs>
    </svg>
    